<?xml version="1.0" encoding="UTF-8" standalone="no"?>
<svg
   xmlns:dc="http://purl.org/dc/elements/1.1/"
   xmlns:cc="http://creativecommons.org/ns#"
   xmlns:rdf="http://www.w3.org/1999/02/22-rdf-syntax-ns#"
   xmlns:svg="http://www.w3.org/2000/svg"
   xmlns="http://www.w3.org/2000/svg"
   xmlns:sodipodi="http://sodipodi.sourceforge.net/DTD/sodipodi-0.dtd"
   xmlns:inkscape="http://www.inkscape.org/namespaces/inkscape"
   width="24"
   height="24"
   viewBox="0 0 6.3499999 6.3500002"
   version="1.1"
   id="svg8"
   inkscape:version="1.0.1 (3bc2e813f5, 2020-09-07, custom)"
   sodipodi:docname="alpha.svg">
  <defs
     id="defs2" />
  <sodipodi:namedview
     id="base"
     pagecolor="#ffffff"
     bordercolor="#666666"
     borderopacity="1.0"
     inkscape:pageopacity="0.0"
     inkscape:pageshadow="2"
     inkscape:zoom="15.839192"
     inkscape:cx="10.235766"
     inkscape:cy="11.252988"
     inkscape:document-units="px"
     inkscape:current-layer="layer1"
     inkscape:document-rotation="0"
     showgrid="false"
     units="px"
     inkscape:window-width="1600"
     inkscape:window-height="844"
     inkscape:window-x="0"
     inkscape:window-y="28"
     inkscape:window-maximized="1" />
  <metadata
     id="metadata5">
    <rdf:RDF>
      <cc:Work
         rdf:about="">
        <dc:format>image/svg+xml</dc:format>
        <dc:type
           rdf:resource="http://purl.org/dc/dcmitype/StillImage" />
        <dc:title></dc:title>
      </cc:Work>
    </rdf:RDF>
  </metadata>
  <g
     inkscape:label="Capa 1"
     inkscape:groupmode="layer"
     id="layer1">
    <g
       aria-label="α	"
       id="text1017"
       style="font-style:normal;font-weight:normal;font-size:7.59193px;line-height:1.25;font-family:sans-serif;letter-spacing:0px;word-spacing:0px;fill:#a9db77;fill-opacity:1;stroke:none;stroke-width:0.189799">
      <path
         d="M 3.7402726,3.4839583 3.5771648,2.6276419 Q 3.4103499,1.7490836 2.7505044,1.7490836 q -0.4967376,0 -0.7228644,0.4077697 -0.2854388,0.5115656 -0.2854388,1.1862391 0,0.8155393 0.2780248,1.204774 0.2817318,0.3966487 0.7302784,0.3966487 0.4967376,0 0.7636414,-0.7895904 z M 4.1220933,2.3496172 4.489086,1.263467 H 5.0970336 L 4.3370992,3.5136142 4.485379,4.3254466 Q 4.518742,4.5070894 4.6484869,4.6590763 4.8004738,4.8370122 4.9190977,4.8370122 H 5.2453134 V 5.4153037 H 4.8375438 q -0.3484578,0 -0.6598455,-0.3113877 Q 4.0257114,4.9482221 3.9626925,4.6220063 3.7921706,5.033483 3.4437129,5.3559918 3.280605,5.5079786 2.7505044,5.5079786 q -0.8711443,0 -1.2937419,-0.5634635 -0.4337187,-0.5819985 -0.4337187,-1.6014227 0,-1.0898572 0.4707886,-1.6014227 0.5226866,-0.5708776 1.256672,-0.5708776 1.1528761,0 1.3715889,1.1788251 z"
         style="stroke-width:0.189799;fill:#a9db77;fill-opacity:1"
         id="path1019" />
    </g>
  </g>
</svg>
