<?xml version="1.0" encoding="UTF-8" standalone="no"?>
<svg
   xmlns:dc="http://purl.org/dc/elements/1.1/"
   xmlns:cc="http://creativecommons.org/ns#"
   xmlns:rdf="http://www.w3.org/1999/02/22-rdf-syntax-ns#"
   xmlns:svg="http://www.w3.org/2000/svg"
   xmlns="http://www.w3.org/2000/svg"
   xmlns:sodipodi="http://sodipodi.sourceforge.net/DTD/sodipodi-0.dtd"
   xmlns:inkscape="http://www.inkscape.org/namespaces/inkscape"
   width="442.51135pt"
   height="442.51135pt"
   viewBox="0 0 442.51135 442.51135"
   version="1.1"
   id="svg335"
   sodipodi:docname="peteca.svg"
   inkscape:version="1.0 (4035a4fb49, 2020-05-01)"
   inkscape:export-filename="/home/abraham/Imágenes/peteca.png"
   inkscape:export-xdpi="20.83"
   inkscape:export-ydpi="20.83">
  <metadata
     id="metadata341">
    <rdf:RDF>
      <cc:Work
         rdf:about="">
        <dc:format>image/svg+xml</dc:format>
        <dc:type
           rdf:resource="http://purl.org/dc/dcmitype/StillImage" />
        <dc:title />
      </cc:Work>
    </rdf:RDF>
  </metadata>
  <defs
     id="defs339" />
  <sodipodi:namedview
     inkscape:document-rotation="0"
     pagecolor="#ffffff"
     bordercolor="#666666"
     borderopacity="1"
     objecttolerance="10"
     gridtolerance="10"
     guidetolerance="10"
     inkscape:pageopacity="0"
     inkscape:pageshadow="2"
     inkscape:window-width="1920"
     inkscape:window-height="1024"
     id="namedview337"
     showgrid="false"
     fit-margin-top="0"
     fit-margin-left="0"
     fit-margin-right="0"
     fit-margin-bottom="0"
     inkscape:zoom="1.0249832"
     inkscape:cx="214.83775"
     inkscape:cy="350.2923"
     inkscape:window-x="0"
     inkscape:window-y="28"
     inkscape:window-maximized="1"
     inkscape:current-layer="svg335" />
  <rect
     id="rect2"
     style="fill:#2e3530;fill-opacity:1;stroke:none;stroke-width:1.11518"
     height="442.51135"
     width="442.51135"
     y="3.5527137e-15"
     x="0" />
  <g
     id="g1497"
     transform="rotate(24.166916,191.90047,302.0883)">
    <path
       style="fill:none;stroke:#87e133;stroke-width:4;stroke-linecap:round;stroke-linejoin:round;stroke-miterlimit:10;stroke-opacity:1"
       d="m 152.62109,385.68359 0.75782,0.56641 1.39062,1.14062 2.14844,0.90625 3.78906,0.79688 2.39844,0.33984 1.89453,0.23047 h 1.51562 l 2.02344,0.22656 0.88281,0.22657 h 0.88282"
       id="path4" />
    <path
       style="fill:none;stroke:#87e133;stroke-width:4;stroke-linecap:round;stroke-linejoin:round;stroke-miterlimit:10;stroke-opacity:1"
       d="m 133.80469,385.34375 0.125,0.67969 1.01172,0.68359 2.01953,0.79688 1.89453,0.79296 1.64062,1.13672 1.01172,0.91016 0.88281,0.68359 1.01172,0.45313 0.37891,0.11328 1.51562,0.11328 h 1.51563"
       id="path6" />
    <path
       style="fill:none;stroke:#87e133;stroke-width:4;stroke-linecap:round;stroke-linejoin:round;stroke-miterlimit:10;stroke-opacity:1"
       d="m 112.33203,384.43359 0.125,1.13672 0.75781,0.79688 1.13672,1.13672 1.39063,0.79296 1.51562,0.45704 2.27344,0.5664 1.64063,0.34375 1.64062,0.33985 1.51563,0.22656 0.88671,0.11328"
       id="path8" />
    <path
       style="fill:none;stroke:#87e133;stroke-width:4;stroke-linecap:round;stroke-linejoin:round;stroke-miterlimit:10;stroke-opacity:1"
       d="m 201.125,382.27344 h 0.63281 l 1.26172,0.22656 1.89453,0.34375 2.01953,0.56641 2.90625,1.25 1.64063,0.79687 1.26562,0.11328 0.88282,0.22656 0.63281,0.11329 0.3789,-0.22657"
       id="path10" />
    <path
       style="fill:none;stroke:#87e133;stroke-width:4;stroke-linecap:round;stroke-linejoin:round;stroke-miterlimit:10;stroke-opacity:1"
       d="m 187.10547,384.66016 0.3789,-0.11329 h 1.01172 l 1.76563,0.79688 1.51562,1.13672 1.51563,1.02344 1.39062,0.79296 1.39063,0.34375 1.51562,0.11329 h 1.76563"
       id="path12" />
    <path
       style="fill:none;stroke:#87e133;stroke-width:4;stroke-linecap:round;stroke-linejoin:round;stroke-miterlimit:10;stroke-opacity:1"
       d="m 173.21094,386.59375 0.125,1.02344 1.13672,1.13672 1.64453,1.02343 2.65234,1.36328 1.00781,0.11329 1.64453,0.11328 1.13672,-0.11328 h 1.26172 l 0.75781,-0.22657"
       id="path14" />
    <path
       style="fill:none;stroke:#87e133;stroke-width:4;stroke-linecap:round;stroke-linejoin:round;stroke-miterlimit:10;stroke-opacity:1"
       d="m 244.44922,378.06641 h -0.37891 l 1.00781,0.23046 2.52735,1.25 2.14844,0.67969 3.41015,0.57031 5.42969,0.33985 1.51562,-0.22656 0.37891,-0.22657 0.12891,-0.34375"
       id="path16" />
    <path
       style="fill:none;stroke:#87e133;stroke-width:4;stroke-linecap:round;stroke-linejoin:round;stroke-miterlimit:10;stroke-opacity:1"
       d="m 228.28125,381.82031 h -0.37891 l 1.01172,0.11328 2.14453,0.67969 2.40235,1.02344 3.53515,1.36328 1.76953,0.57031 0.75782,0.22656 1.64062,0.22657 2.01953,-0.33985"
       id="path18" />
    <path
       style="fill:none;stroke:#87e133;stroke-width:4;stroke-linecap:round;stroke-linejoin:round;stroke-miterlimit:10;stroke-opacity:1"
       d="m 215.14453,380.11328 0.37891,0.68359 1.89453,1.13672 1.89453,0.45313 1.89453,0.22656 h 1.89453 l 0.88672,0.11328 0.75781,0.23047 0.50391,0.22656"
       id="path20" />
    <path
       style="fill:none;stroke:#fae84c;stroke-width:4;stroke-linecap:round;stroke-linejoin:round;stroke-miterlimit:10;stroke-opacity:1"
       d="m 117.50781,292.69922 7.45313,4.09375 5.17968,1.58984 0.63282,0.45703"
       id="path22" />
    <path
       style="fill:none;stroke:#fae84c;stroke-width:4;stroke-linecap:round;stroke-linejoin:round;stroke-miterlimit:10;stroke-opacity:1"
       d="m 104.87891,277.01172 6.69531,4.54687 9.72266,6.25391 2.40234,1.93359 1.89453,1.25 1.00781,1.13672 0.38282,0.67969"
       id="path24" />
    <path
       style="fill:none;stroke:#fae84c;stroke-width:4;stroke-linecap:round;stroke-linejoin:round;stroke-miterlimit:10;stroke-opacity:1"
       d="m 99.699219,268.03125 5.937501,4.20703 11.24219,5.34375 9.47265,1.58984 5.42969,0.11329 h 0.50781 -0.63281"
       id="path26" />
    <path
       style="fill:none;stroke:#fae84c;stroke-width:4;stroke-linecap:round;stroke-linejoin:round;stroke-miterlimit:10;stroke-opacity:1"
       d="m 86.4375,254.62109 5.683594,1.92969 13.390626,4.54688 7.82812,3.98046 1.51563,1.47657 0.50781,0.45312"
       id="path28" />
    <path
       style="fill:none;stroke:#fae84c;stroke-width:4;stroke-linecap:round;stroke-linejoin:round;stroke-miterlimit:10;stroke-opacity:1"
       d="m 84.921875,246.43359 2.398437,1.70703 8.84375,5.57032 4.800778,2.04687 5.05079,1.70313 7.32421,2.16015 3.66407,1.25 4.92578,1.47657 1.13672,1.48046"
       id="path30" />
    <path
       style="fill:none;stroke:#fae84c;stroke-width:4;stroke-linecap:round;stroke-linejoin:round;stroke-miterlimit:10;stroke-opacity:1"
       d="m 82.902344,235.63672 5.304687,3.86328 16.546879,7.95703 8.33593,3.86719 2.27344,1.92969 0.50391,0.45703 0.5039,0.45312"
       id="path32" />
    <path
       style="fill:none;stroke:#fae84c;stroke-width:4;stroke-linecap:round;stroke-linejoin:round;stroke-miterlimit:10;stroke-opacity:1"
       d="m 77.089844,230.63281 16.167968,8.75391 5.9375,3.18359 4.546878,2.72656 2.52734,1.82032 1.64063,0.5664"
       id="path34" />
    <path
       style="fill:none;stroke:#fae84c;stroke-width:4;stroke-linecap:round;stroke-linejoin:round;stroke-miterlimit:10;stroke-opacity:1"
       d="m 78.984375,222.22266 6.0625,3.75 13.136719,4.32031 8.968746,1.59375 1.64063,0.79297 0.50781,0.45703 0.125,0.90625 -0.75781,0.57031"
       id="path36" />
    <path
       style="fill:none;stroke:#fae84c;stroke-width:4;stroke-linecap:round;stroke-linejoin:round;stroke-miterlimit:10;stroke-opacity:1"
       d="m 77.21875,209.94531 5.933594,3.75391 13.894531,5.79687 5.433595,1.47657 7.82812,2.27343 1.01172,0.33985 0.25391,0.34375"
       id="path38" />
    <path
       style="fill:none;stroke:#fae84c;stroke-width:4;stroke-linecap:round;stroke-linejoin:round;stroke-miterlimit:10;stroke-opacity:1"
       d="m 77.722656,206.87891 5.683594,4.3164 7.324219,5.23047 6.949219,4.88672 3.031252,0.79687 h 1.39062"
       id="path40" />
    <path
       style="fill:none;stroke:#fae84c;stroke-width:4;stroke-linecap:round;stroke-linejoin:round;stroke-miterlimit:10;stroke-opacity:1"
       d="m 114.85547,200.17187 -0.37891,1.58985 -1.00781,3.18359 -0.12891,0.91016 0.12891,1.02344 1.13672,0.67968 h 0.62891"
       id="path42" />
    <path
       style="fill:none;stroke:#fae84c;stroke-width:4;stroke-linecap:round;stroke-linejoin:round;stroke-miterlimit:10;stroke-opacity:1"
       d="m 108.54297,195.39453 -0.75781,3.07031 1.38672,0.57032 h 0.75781"
       id="path44" />
    <path
       style="fill:none;stroke:#fae84c;stroke-width:4;stroke-linecap:round;stroke-linejoin:round;stroke-miterlimit:10;stroke-opacity:1"
       d="m 106.39453,186.07422 -2.27344,2.04687 -1.89453,3.98047 0.25391,0.90625 2.01953,-0.22656"
       id="path46" />
    <path
       style="fill:none;stroke:#fae84c;stroke-width:4;stroke-linecap:round;stroke-linejoin:round;stroke-miterlimit:10;stroke-opacity:1"
       d="m 102.35156,177.55078 -0.3789,1.02344 -0.88282,2.38672 -0.63281,2.72656 -0.125,1.25 v 1.13672"
       id="path48" />
    <path
       style="fill:none;stroke:#8ae133;stroke-width:4;stroke-linecap:round;stroke-linejoin:round;stroke-miterlimit:10;stroke-opacity:1"
       d="m 196.07422,392.61719 -0.37891,0.33984 -3.53906,3.64063 -4.41797,6.36328"
       id="path50" />
    <path
       style="fill:none;stroke:#8ae133;stroke-width:4;stroke-linecap:round;stroke-linejoin:round;stroke-miterlimit:10;stroke-opacity:1"
       d="m 173.84375,397.50391 -1.76953,2.84375 -0.75781,5.11328 v 0.45703"
       id="path52" />
    <path
       style="fill:none;stroke:#8ae133;stroke-width:4;stroke-linecap:round;stroke-linejoin:round;stroke-miterlimit:10;stroke-opacity:1"
       d="m 153.37891,399.55078 v 2.04688 l 1.76953,2.95703 1.64062,2.16015"
       id="path54" />
    <path
       style="fill:none;stroke:#8ae133;stroke-width:4;stroke-linecap:round;stroke-linejoin:round;stroke-miterlimit:10;stroke-opacity:1"
       d="m 245.58594,364.76953 -0.25391,0.45313"
       id="path56" />
    <path
       style="fill:none;stroke:#8ae133;stroke-width:4;stroke-linecap:round;stroke-linejoin:round;stroke-miterlimit:10;stroke-opacity:1"
       d="m 235.85937,360.10547 -2.65234,2.27344 -3.15625,4.09375 -1.64453,4.54687 v 0.57031"
       id="path58" />
    <path
       style="fill:none;stroke:#8ae133;stroke-width:4;stroke-linecap:round;stroke-linejoin:round;stroke-miterlimit:10;stroke-opacity:1"
       d="m 217.67187,352.03516 -0.2539,0.34375 -6.1875,7.5 -4.42188,6.14062 -2.39843,4.43359 0.25,0.79297 0.88671,0.11328"
       id="path60" />
    <path
       style="fill:none;stroke:#8ae133;stroke-width:4;stroke-linecap:round;stroke-linejoin:round;stroke-miterlimit:10;stroke-opacity:1"
       d="m 200.24219,346.92187 -4.54688,5.6836 -7.32812,7.95703 -6.56641,7.27344 -3.78906,4.77343 -2.02344,3.41407 v 0.33984"
       id="path62" />
    <path
       style="fill:none;stroke:#8ae133;stroke-width:4;stroke-linecap:round;stroke-linejoin:round;stroke-miterlimit:10;stroke-opacity:1"
       d="m 176.74609,346.80859 -0.6289,0.33985 -8.46485,8.29687 -7.57812,8.52735 -5.6836,8.52343 -0.88281,1.82032 -0.2539,0.79687"
       id="path64" />
    <path
       style="fill:none;stroke:#8ae133;stroke-width:4;stroke-linecap:round;stroke-linejoin:round;stroke-miterlimit:10;stroke-opacity:1"
       d="m 146.55859,358.96875 -0.5039,0.45703 -5.42969,7.04688 -4.42188,7.73046 -1.89453,4.32032"
       id="path66" />
    <path
       style="fill:none;stroke:#8ae133;stroke-width:4;stroke-linecap:round;stroke-linejoin:round;stroke-miterlimit:10;stroke-opacity:1"
       d="m 237.87891,391.25391 -2.14454,1.47656 -5.17968,4.43359"
       id="path68" />
    <path
       style="fill:none;stroke:#8ae133;stroke-width:4;stroke-linecap:round;stroke-linejoin:round;stroke-miterlimit:10;stroke-opacity:1"
       d="m 219.82031,391.25391 -5.17969,4.32031 -7.19921,7.84375 -2.02344,3.41015"
       id="path70" />
    <path
       style="fill:none;stroke:#8ae133;stroke-width:4;stroke-linecap:round;stroke-linejoin:round;stroke-miterlimit:10;stroke-opacity:1"
       d="m 127.36328,395.46094 v 0.33984 l 4.03906,3.75 6.0625,4.32031 6.44141,1.82032 1.39062,0.33984"
       id="path72" />
    <path
       style="fill:none;stroke:#8ae133;stroke-width:4;stroke-linecap:round;stroke-linejoin:round;stroke-miterlimit:10;stroke-opacity:1"
       d="m 108.79297,395.34766 0.75781,1.8164 4.92578,3.63672 4.80078,2.04688 2.27344,0.79687 1.26172,0.45313 1.01172,0.22656 1.51562,-0.11328"
       id="path74" />
    <path
       style="fill:none;stroke:#8ae133;stroke-width:4;stroke-linecap:round;stroke-linejoin:round;stroke-miterlimit:10;stroke-opacity:1"
       d="m 94.648438,398.07422 v -0.6836 l 1.261718,1.13672 3.03125,2.61719 3.160154,1.70313 1.89453,0.68359 1.38672,0.11328 2.02344,-0.11328"
       id="path76" />
    <path
       style="fill:none;stroke:#87e133;stroke-width:4;stroke-linecap:round;stroke-linejoin:round;stroke-miterlimit:10;stroke-opacity:1"
       d="m 42.484375,377.5 h -0.757813 l 1.136719,0.91016 2.273438,1.8164 1.894531,1.36328 2.019531,1.25391 2.398438,1.25 3.285156,1.13672 5.304687,2.04297 3.664063,1.36718 3.410156,1.13672 3.285157,1.47657 5.429687,2.72656 3.535156,1.59375 3.285157,1.70312 4.925781,2.38672 1.640625,0.6836 4.296875,1.93359 2.652343,1.13672 2.90625,1.13672 6.312498,2.72656 4.54688,1.93359 3.28515,0.91016 3.03125,0.56641 2.90625,0.68359 4.29297,0.67969 3.78907,0.68359 4.42187,0.67969 5.17969,0.45703 5.55468,0.22656 h 7.45313 l 4.16797,-0.11328 3.91797,-0.11328 3.66015,-0.22656 3.66407,-0.34375 6.0625,-0.45313 4.16796,-0.22656 h 4.04297 l 3.15625,-0.11328 4.29297,-0.45703 2.90625,-0.11328 2.65235,-0.22657 2.52734,-0.11328 3.66406,-0.22656 2.77735,-0.23047 3.15625,-0.67969 2.90625,-0.68359 4.04296,-1.36328 1.89454,-0.56641 1.64062,-0.57031 2.01953,-0.45313 2.27735,-0.68359 3.03125,-1.25 1.64062,-0.91016 1.51563,-0.91015 1.89453,-0.56641 2.14843,-0.91015 1.64063,-0.6836 1.76953,-0.79297 2.01953,-0.79687 2.14844,-1.02344 2.65234,-1.02344 1.51563,-0.5664 1.26172,-0.57032 1.39062,-0.5664 2.52344,-1.25 1.76953,-0.6836 1.51563,-0.68359 1.01171,-0.79297 1.13672,-0.68359 2.01953,-1.36328 1.13672,-0.91016 1.01172,-0.91016 0.63281,-0.5664 0.88282,-0.45703 0.75781,-0.45313 1.26172,-0.91015 1.13672,-1.02344 2.27343,-1.36328 3.16016,-1.47657 0.37891,-0.22656 0.88281,-0.57031 0.75781,-0.45313 0.37891,-0.34375 0.125,-0.79296 0.63281,-2.27344 0.37891,-1.13672"
       id="path78" />
    <path
       style="fill:none;stroke:#87e133;stroke-width:4;stroke-linecap:round;stroke-linejoin:round;stroke-miterlimit:10;stroke-opacity:1"
       d="m 48.417969,372.60937 -0.378907,-0.11328 -0.25,1.36719 0.125,1.36328 0.503907,0.91016 0.757812,0.90625 1.390625,0.91015 2.90625,1.47657 2.273438,0.57031 2.019531,0.45312 1.390625,0.23047 1.640625,0.11328 h 0.882813 l 0.632812,-0.11328 h 0.378906"
       id="path80" />
    <path
       style="fill:none;stroke:#87e133;stroke-width:4;stroke-linecap:round;stroke-linejoin:round;stroke-miterlimit:10;stroke-opacity:1"
       d="m 66.609375,376.02344 v 1.01953 l 0.628906,1.48047 L 68.25,380 l 1.769531,1.82031 1.261719,0.90625 0.882812,0.45703 0.886719,0.56641 0.882813,0.45703 1.390625,0.33984 1.640625,0.11329 h 1.640625"
       id="path82" />
    <path
       style="fill:none;stroke:#8ae133;stroke-width:4;stroke-linecap:round;stroke-linejoin:round;stroke-miterlimit:10;stroke-opacity:1"
       d="m 129.76172,359.87891 -0.50391,0.45703 -5.6875,6.36328 -6.1875,8.98047 -2.39843,5.68359 -0.37891,2.73047 h 0.50391"
       id="path84" />
    <path
       style="fill:none;stroke:#8ae133;stroke-width:4;stroke-linecap:round;stroke-linejoin:round;stroke-miterlimit:10;stroke-opacity:1"
       d="m 122.05469,343.28516 h -0.37891 l -3.91406,3.0664 -6.0625,5.57031 -6.56641,6.82032 -4.92578,6.02734 -3.410155,4.20313 -2.023437,3.52343 -0.503907,2.04688 0.503907,0.91015 3.03125,0.22657 0.632812,-0.33985"
       id="path86" />
    <path
       style="fill:none;stroke:#8ae133;stroke-width:4;stroke-linecap:round;stroke-linejoin:round;stroke-miterlimit:10;stroke-opacity:1"
       d="m 105.25781,343.05469 -1.51562,-0.11328 -5.683596,3.18359 -6.820313,5.68359 -8.589843,7.04688 -8.082032,6.82031 -3.664062,3.07031 -1.640625,1.82032 0.125,0.67968 0.503906,-0.11328"
       id="path88" />
    <path
       style="fill:none;stroke:#8ae133;stroke-width:4;stroke-linecap:round;stroke-linejoin:round;stroke-miterlimit:10;stroke-opacity:1"
       d="m 76.460938,351.92187 h -1.894532 l -1.644531,0.11329 -2.777344,1.36718 -2.527343,1.92969 -3.03125,2.27344 -4.671876,2.95703 -2.273437,1.47656 -2.148437,1.25 -0.378907,0.11328"
       id="path90" />
    <path
       style="fill:none;stroke:#87e133;stroke-width:4;stroke-linecap:round;stroke-linejoin:round;stroke-miterlimit:10;stroke-opacity:1"
       d="m 257.58594,374.31641 -0.25391,0.5664 0.63281,0.91016 1.26172,0.68359 2.27344,0.67969 1.64062,0.11719 h 3.16016 l 0.37891,0.11328"
       id="path92" />
    <path
       style="fill:none;stroke:#87e133;stroke-width:4;stroke-linecap:round;stroke-linejoin:round;stroke-miterlimit:10;stroke-opacity:1"
       d="m 97.175781,382.72656 0.125,0.91016 0.757813,1.02344 1.261718,1.02343 1.390628,1.13672 1.39062,0.91016 0.88282,0.5664 1.01171,0.79688 0.88282,0.33984 1.01172,0.11328 h 1.89453 l 1.13672,-0.11328"
       id="path94" />
    <path
       style="fill:none;stroke:#87e133;stroke-width:4;stroke-linecap:round;stroke-linejoin:round;stroke-miterlimit:10;stroke-opacity:1"
       d="m 82.648438,379.66016 v 0.45312 l 0.125,1.13672 1.390624,1.93359 1.261719,0.91016 1.136719,0.67969 0.886719,0.68359 0.757812,0.56641 0.628907,0.45703 0.378906,0.22656 1.265625,0.11328 1.765625,-0.22656"
       id="path96" />
    <path
       style="fill:none;stroke:#ab7da6;stroke-width:4;stroke-linecap:round;stroke-linejoin:round;stroke-miterlimit:10;stroke-opacity:1"
       d="M 200.74609,232.33984 V 232 L 201,231.31641 l 1.51562,-1.13672 2.65235,-1.47657 2.90234,-2.27343 5.9375,-4.54688 4.29688,-3.41015 0.5039,-0.57032"
       id="path98" />
    <path
       style="fill:none;stroke:#ab7da6;stroke-width:4;stroke-linecap:round;stroke-linejoin:round;stroke-miterlimit:10;stroke-opacity:1"
       d="m 218.68359,224.83594 h -0.88672 l -12.75781,4.09375 -13.64062,5.57031 h 0.75781"
       id="path100" />
    <path
       style="fill:none;stroke:#ab7da6;stroke-width:4;stroke-linecap:round;stroke-linejoin:round;stroke-miterlimit:10;stroke-opacity:1"
       d="m 208.07031,218.47266 -1.38672,0.5664 -10.73828,4.66016 -6.1875,3.41015 2.01953,-0.33984"
       id="path102" />
    <path
       style="fill:none;stroke:#ab7da6;stroke-width:4;stroke-linecap:round;stroke-linejoin:round;stroke-miterlimit:10;stroke-opacity:1"
       d="m 205.16797,276.67187 h -0.75781 l -8.46485,4.20704 -14.77734,8.98046 -9.59766,6.47657 3.03125,-0.11328 1.26172,-0.67969"
       id="path104" />
    <path
       style="fill:none;stroke:#ab7da6;stroke-width:4;stroke-linecap:round;stroke-linejoin:round;stroke-miterlimit:10;stroke-opacity:1"
       d="m 181.67187,288.72266 0.37891,-0.57032 1.76953,-2.72656 2.01953,-2.5 2.40235,-2.84375 2.52734,-3.29687 2.27344,-3.1836 1.13672,-1.92969"
       id="path106" />
    <path
       style="fill:none;stroke:#ab7da6;stroke-width:4;stroke-linecap:round;stroke-linejoin:round;stroke-miterlimit:10;stroke-opacity:1"
       d="m 210.47266,268.26172 h -0.50782 l -8.58593,3.52344 -14.14844,7.61328 -8.08203,5.0039 2.27343,-1.02343"
       id="path108" />
    <path
       style="fill:none;stroke:#ab7da6;stroke-width:4;stroke-linecap:round;stroke-linejoin:round;stroke-miterlimit:10;stroke-opacity:1"
       d="m 195.94531,263.82812 -0.88281,0.22657 -7.70313,3.52343 -13.89453,8.1836 -3.16015,3.29687 4.80078,-2.04687"
       id="path110" />
    <path
       style="fill:none;stroke:#ab7da6;stroke-width:4;stroke-linecap:round;stroke-linejoin:round;stroke-miterlimit:10;stroke-opacity:1"
       d="m 171.69531,308.72656 3.15625,-1.25 1.01172,-0.45312"
       id="path112" />
    <path
       style="fill:none;stroke:#ab7da6;stroke-width:4;stroke-linecap:round;stroke-linejoin:round;stroke-miterlimit:10;stroke-opacity:1"
       d="m 184.45312,295.08594 -0.75781,0.34375 -5.9375,2.83984 -5.05078,2.72656 0.125,0.45703 0.37891,-0.11328"
       id="path114" />
    <path
       style="fill:none;stroke:#ab7da6;stroke-width:4;stroke-linecap:round;stroke-linejoin:round;stroke-miterlimit:10;stroke-opacity:1"
       d="m 222.34375,287.69922 h -0.37891 l -4.03906,1.13672 -10.73828,5.68359 -6.1875,3.06641 -6.31641,2.84375 -11.24218,4.54687 -7.32422,2.5 -5.5586,1.59375 -4.54687,1.01953"
       id="path116" />
    <path
       style="fill:none;stroke:#ab7da6;stroke-width:4;stroke-linecap:round;stroke-linejoin:round;stroke-miterlimit:10;stroke-opacity:1"
       d="m 192.91406,284.28906 h -0.75781 l -6.82031,3.29688 -14.90235,9.43359 -5.68359,4.88672 1.13672,0.57031 1.64062,-0.45703"
       id="path118" />
    <path
       style="fill:none;stroke:#ab7da6;stroke-width:4;stroke-linecap:round;stroke-linejoin:round;stroke-miterlimit:10;stroke-opacity:1"
       d="m 216.02734,232.45312 -0.88281,0.33985 -10.10547,5.11719 -15.53515,8.18359 0.3789,0.45312 1.13672,-0.45312"
       id="path120" />
    <path
       style="fill:none;stroke:#ab7da6;stroke-width:4;stroke-linecap:round;stroke-linejoin:round;stroke-miterlimit:10;stroke-opacity:1"
       d="m 214.00781,248.48047 h -0.3789 l -4.16797,0.91015 -12.37891,5.6836 -8.71484,4.66015 -0.125,1.70704 2.14843,-0.45704"
       id="path122" />
    <path
       style="fill:none;stroke:#ab7da6;stroke-width:4;stroke-linecap:round;stroke-linejoin:round;stroke-miterlimit:10;stroke-opacity:1"
       d="m 213.375,236.66016 -0.88281,0.22656 -13.51563,6.02344 -15.28125,8.41406 -1.64453,2.61328 4.55078,-1.25"
       id="path124" />
    <path
       style="fill:none;stroke:#ab7da6;stroke-width:4;stroke-linecap:round;stroke-linejoin:round;stroke-miterlimit:10;stroke-opacity:1"
       d="m 208.95703,254.39062 h -0.37891 l -8.08593,4.09375 -19.44922,10.6836 -5.8125,3.29687 3.28515,-1.25"
       id="path126" />
    <path
       style="fill:none;stroke:#709ecf;stroke-width:4;stroke-linecap:round;stroke-linejoin:round;stroke-miterlimit:10;stroke-opacity:1"
       d="m 140.875,268.82812 -0.125,1.02344 0.37891,2.04688 1.39062,2.83984 0.37891,1.13672 0.25,0.91016 v 2.27343 l -0.125,1.13672 v 0.91016 l -0.125,0.33984 v 0.6836 l 0.3789,2.16015 1.38672,2.38672 1.76953,1.36328 0.37891,0.22656 0.50391,0.34375 2.14843,2.5 1.89453,1.58985 1.51563,1.13672 0.37891,0.22656"
       id="path128" />
    <path
       style="fill:none;stroke:#709ecf;stroke-width:4;stroke-linecap:round;stroke-linejoin:round;stroke-miterlimit:10;stroke-opacity:1"
       d="m 138.98047,263.25781 v -0.33984 h 0.50781 l 0.62891,0.91015 1.64453,3.06641 1.00781,2.27344 0.63281,0.91015 2.01953,1.9336 1.01172,0.33984 0.37891,-0.11328 0.50391,-1.36328 -0.125,-0.57031"
       id="path130" />
    <path
       style="fill:none;stroke:#709ecf;stroke-width:4;stroke-linecap:round;stroke-linejoin:round;stroke-miterlimit:10;stroke-opacity:1"
       d="m 145.42187,248.82031 0.63282,4.77735 2.39843,5.33984 2.27344,3.52344 0.37891,0.23047 0.1289,-0.34375"
       id="path132" />
    <path
       style="fill:none;stroke:#709ecf;stroke-width:4;stroke-linecap:round;stroke-linejoin:round;stroke-miterlimit:10;stroke-opacity:1"
       d="m 146.6875,241.20703 v 1.25 l 1.51562,4.32031 3.78907,5.11328 2.39843,1.82032 1.13672,-0.45703"
       id="path134" />
    <path
       style="fill:none;stroke:#709ecf;stroke-width:4;stroke-linecap:round;stroke-linejoin:round;stroke-miterlimit:10;stroke-opacity:1"
       d="m 146.05469,226.65625 1.64062,2.5 4.67578,5.68359 3.66016,4.4336 1.14062,1.25 0.37891,0.45703 -0.25391,-0.34375"
       id="path136" />
    <path
       style="fill:none;stroke:#709ecf;stroke-width:4;stroke-linecap:round;stroke-linejoin:round;stroke-miterlimit:10;stroke-opacity:1"
       d="m 144.16016,213.01562 -0.125,-0.33984 2.01953,1.36328 7.07422,6.82031 3.53515,3.97657 1.26563,1.02343 v -1.58984 l -0.12891,-0.79687"
       id="path138" />
    <path
       style="fill:none;stroke:#709ecf;stroke-width:4;stroke-linecap:round;stroke-linejoin:round;stroke-miterlimit:10;stroke-opacity:1"
       d="m 147.19141,200.73828 0.88281,2.84375 3.41015,6.02344 4.67579,5.79687 0.125,-0.79687 -0.125,-0.67969"
       id="path140" />
    <path
       style="fill:none;stroke:#709ecf;stroke-width:4;stroke-linecap:round;stroke-linejoin:round;stroke-miterlimit:10;stroke-opacity:1"
       d="m 139.61328,183.00781 -0.25391,1.36328 2.78125,6.47657 5.8086,10.11718 0.88281,0.79688 0.37891,-1.82031 -0.25,-0.90625"
       id="path142" />
    <path
       style="fill:none;stroke:#709ecf;stroke-width:4;stroke-linecap:round;stroke-linejoin:round;stroke-miterlimit:10;stroke-opacity:1"
       d="m 138.73047,169.25 -0.25391,0.34375 3.15625,7.84375 7.95703,15.45703 2.14844,2.84375 0.25391,-2.04687"
       id="path144" />
    <path
       style="fill:none;stroke:#fae84c;stroke-width:4;stroke-linecap:round;stroke-linejoin:round;stroke-miterlimit:10;stroke-opacity:1"
       d="m 72.671875,196.53125 7.449219,4.32031 10.359375,4.89063 7.453125,1.92968 4.039066,0.79688 1.89453,0.33984 0.3789,0.11328 v 0.34375"
       id="path146" />
    <path
       style="fill:none;stroke:#fae84c;stroke-width:4;stroke-linecap:round;stroke-linejoin:round;stroke-miterlimit:10;stroke-opacity:1"
       d="m 100.20703,161.86328 -1.011718,1.93359 -2.273437,4.4336 -1.011719,3.0664 v 1.36329 l 0.886719,0.79687 0.378906,-0.11328"
       id="path148" />
    <path
       style="fill:none;stroke:#fae84c;stroke-width:4;stroke-linecap:round;stroke-linejoin:round;stroke-miterlimit:10;stroke-opacity:1"
       d="m 68.503906,173.45703 2.902344,0.91016 10.738281,4.66015 7.578125,5.45703 2.777344,3.29688 1.390625,1.36328 1.007813,0.91016 0.757812,0.33984"
       id="path150" />
    <path
       style="fill:none;stroke:#fae84c;stroke-width:4;stroke-linecap:round;stroke-linejoin:round;stroke-miterlimit:10;stroke-opacity:1"
       d="m 55.492188,176.52734 6.1875,4.77344 5.6875,4.09375 5.808593,3.52344 5.683594,2.83984 5.179687,1.9336 5.683594,1.70312 2.019532,1.02344 1.011718,0.79687 0.378906,0.33985 0.503907,0.23047"
       id="path152" />
    <path
       style="fill:none;stroke:#fae84c;stroke-width:4;stroke-linecap:round;stroke-linejoin:round;stroke-miterlimit:10;stroke-opacity:1"
       d="m 55.238281,173.68359 11.371094,7.50391 9.976563,6.48047 7.832031,4.43359 2.019531,1.01953 0.125,0.45703"
       id="path154" />
    <path
       style="fill:none;stroke:#fae84c;stroke-width:4;stroke-linecap:round;stroke-linejoin:round;stroke-miterlimit:10;stroke-opacity:1"
       d="m 53.09375,159.25 1.515625,0.79297 13.894531,7.5039 9.21875,5.57032 5.9375,5.11328 1.894532,3.07031 0.125,0.91016"
       id="path156" />
    <path
       style="fill:none;stroke:#fae84c;stroke-width:4;stroke-linecap:round;stroke-linejoin:round;stroke-miterlimit:10;stroke-opacity:1"
       d="m 97.804688,152.88281 -2.019532,2.95703 -3.285156,6.9336 1.261719,1.58984 2.402343,-0.91016"
       id="path158" />
    <path
       style="fill:none;stroke:#fae84c;stroke-width:4;stroke-linecap:round;stroke-linejoin:round;stroke-miterlimit:10;stroke-opacity:1"
       d="m 54.355469,151.63281 1.894531,1.13672 12.253906,5.68359 7.449219,3.52344 2.90625,3.98047 0.378906,1.92969"
       id="path160" />
    <path
       style="fill:none;stroke:#fae84c;stroke-width:4;stroke-linecap:round;stroke-linejoin:round;stroke-miterlimit:10;stroke-opacity:1"
       d="m 53.722656,139.92578 0.378906,1.70313 4.546876,4.20703 8.589843,5.45703 4.675781,3.17969 0.882813,1.70703"
       id="path162" />
    <path
       style="fill:none;stroke:#709ecf;stroke-width:4;stroke-linecap:round;stroke-linejoin:round;stroke-miterlimit:10;stroke-opacity:1"
       d="m 144.79297,167.32031 -0.12891,0.33985 0.75781,4.77343 5.5586,12.27735 2.52734,2.84375 -0.1289,-0.91016"
       id="path164" />
    <path
       style="fill:none;stroke:#709ecf;stroke-width:4;stroke-linecap:round;stroke-linejoin:round;stroke-miterlimit:10;stroke-opacity:1"
       d="m 145.42187,146.85937 v 0.33985 l 0.88672,5.79687 5.55469,13.86719 4.80078,5.91406 0.88672,0.67969 0.25,-1.47656"
       id="path166" />
    <path
       style="fill:none;stroke:#709ecf;stroke-width:4;stroke-linecap:round;stroke-linejoin:round;stroke-miterlimit:10;stroke-opacity:1"
       d="m 144.28516,130.71484 -0.125,-0.33984 1.26171,4.20703 6.82032,17.39063 3.28515,7.16406 1.39063,1.70312 v -0.68359"
       id="path168" />
    <path
       style="fill:none;stroke:#ab7da6;stroke-width:4;stroke-linecap:round;stroke-linejoin:round;stroke-miterlimit:10;stroke-opacity:1"
       d="m 243.94141,197.55469 h -0.37891 l -8.71484,2.84375 -15.15625,5.45703 -11.8711,5.22656 -1.13672,0.34375"
       id="path170" />
    <path
       style="fill:none;stroke:#ab7da6;stroke-width:4;stroke-linecap:round;stroke-linejoin:round;stroke-miterlimit:10;stroke-opacity:1"
       d="m 263.51953,162.66016 h -0.62891 l -9.47265,3.41015 -18.31641,6.58985 -16.79687,7.61718 -1.76953,0.91016"
       id="path172" />
    <path
       style="fill:none;stroke:#ab7da6;stroke-width:4;stroke-linecap:round;stroke-linejoin:round;stroke-miterlimit:10;stroke-opacity:1"
       d="m 254.30078,184.59766 h -0.50391 l -9.72656,3.52343 -22.73437,7.39063 -11.75,3.97656 -2.27344,1.02344"
       id="path174" />
    <path
       style="fill:none;stroke:#ab7da6;stroke-width:4;stroke-linecap:round;stroke-linejoin:round;stroke-miterlimit:10;stroke-opacity:1"
       d="m 264.40625,167.09375 -0.75781,0.22656 -11.11719,4.4336 -21.34375,8.98046 -13.51563,5.79688 -6.57031,2.16016"
       id="path176" />
    <path
       style="fill:none;stroke:#ab7da6;stroke-width:4;stroke-linecap:round;stroke-linejoin:round;stroke-miterlimit:10;stroke-opacity:1"
       d="m 258.21484,176.07031 h -0.5039 l -5.6836,2.50391 -15.53515,6.70703 -14.01953,5.11328 -5.9375,1.36328 -0.12891,-0.11328"
       id="path178" />
    <path
       style="fill:none;stroke:#ab7da6;stroke-width:4;stroke-linecap:round;stroke-linejoin:round;stroke-miterlimit:10;stroke-opacity:1"
       d="m 207.3125,203.46875 -1.00781,0.33984 -5.9375,2.38672 1.01172,0.22656 1.13671,-0.45312"
       id="path180" />
    <path
       style="fill:none;stroke:#709ecf;stroke-width:4;stroke-linecap:round;stroke-linejoin:round;stroke-miterlimit:10;stroke-opacity:1"
       d="m 194.80859,141.96875 1.89453,-0.45313 -0.6289,1.70313 -6.19141,6.9375 -3.53515,4.08984 -5.05469,6.9336 -1.64063,3.07031 0.125,0.33984"
       id="path182" />
    <path
       style="fill:none;stroke:#709ecf;stroke-width:4;stroke-linecap:round;stroke-linejoin:round;stroke-miterlimit:10;stroke-opacity:1"
       d="m 195.0625,102.41406 -0.63281,0.33985 -6.0625,4.88672 -8.96875,12.27734 1.51562,0.56641"
       id="path184" />
    <path
       style="fill:none;stroke:#709ecf;stroke-width:4;stroke-linecap:round;stroke-linejoin:round;stroke-miterlimit:10;stroke-opacity:1"
       d="m 206.17578,51.714844 h -0.88281 l -0.125,-0.339844 0.3789,-0.457031 0.50391,-0.339844 0.75781,-0.453125 1.26172,-0.117188 2.27344,-0.113281 1.01172,-0.226562 0.3789,-0.453125 -0.75781,0.566406 -3.53515,2.730469 -2.27344,1.929687 -1.89453,2.730469 -0.50782,1.703125 1.64454,1.933594 2.39843,0.113281 2.27344,-0.339844 2.39844,-0.457031 h 1.26562 l 0.37891,1.136719 -0.50781,2.046875 -2.52344,3.75 -1.76953,2.730468 -0.25391,0.339844 1.01172,0.113282 1.39063,-0.453126 2.52343,-0.910156 1.26563,-0.453125 0.5039,0.679688 -0.75781,1.480469 -2.77734,3.410156 -1.89453,2.386718 -2.27344,2.726563 -0.12891,0.339844 v 0.34375 h 1.13672 l 1.51563,-0.457031 1.39062,-0.339844 v 0.339844 l -0.75781,1.25 -3.66406,4.09375 L 203.77734,87.75 201,91.386719 l -0.75781,1.023437 0.3789,0.566406 h 2.39844 l 3.28516,-0.910156 1.38672,-0.339844 0.75781,-0.226562 0.75781,-0.113281 v 0.679687 l -3.53516,4.546875 -1.89453,2.273438 -1.64062,2.160161 -0.25391,0.45703 1.13672,0.33984 2.77734,-0.56641 2.40235,-0.79687 0.6289,-0.22656 0.50782,-0.23047 -0.37891,1.02344 -2.14844,2.61718 -1.26172,1.92969 -0.88671,1.48047 -0.37891,1.02344 v 0.45312 l 1.01172,0.22656 h 1.39062 l 1.38672,-0.11328 h 0.63281 l 0.75782,0.11328 0.125,1.25 -1.13672,2.38672 -2.39844,3.07032 -3.66406,4.54687 -1.64063,2.72656 -1.13672,2.04688 -0.125,0.68359 0.25,0.33985 1.64454,0.11328 1.13671,-0.45313 0.75782,-0.68359 0.6289,-0.22656 0.37891,-0.22657 0.63281,0.33985 -0.63281,1.59375 -1.51563,2.38671 -1.64062,1.92969 -1.26172,1.70703 -0.25391,0.45313 0.63282,0.11328 1.13672,-0.22656 1.26171,-0.33985 v 1.13672 l -2.65234,3.52344 -1.64062,2.16016 -1.26563,1.70312 -0.50391,1.13672 -0.125,0.34375 -0.1289,0.33984 1.89453,0.11328 2.65234,-1.13671 3.03125,-0.79688 0.88672,-0.22656 0.50391,1.02344 -2.65235,3.52343 -3.41015,4.09375 -2.01953,3.1836 -0.50782,1.25 -0.125,0.33984 1.51563,-0.68359 1.89453,-1.01953 0.88281,-0.34375 -0.25,0.68359 -3.16015,3.29687 -2.27344,2.61329 -2.77734,3.98046 -0.37891,1.01954 0.125,0.34375 1.01172,-0.11329 1.51562,-0.91015 0.88282,-0.79688 0.3789,-0.22656 v 0.45313 l -2.14453,2.95703 -2.40234,2.61328 -0.62891,1.25 -0.12891,0.91015 v 0.33985 l 1.64454,-0.90625 0.88281,-0.57031 0.3789,-0.22657 0.37891,-0.33984 -1.39062,2.27344 -2.27344,2.61328 -2.65235,4.88672 -0.88281,2.04687 -0.125,0.45313 1.51563,-0.11328 1.38672,-0.90625 0.50781,-0.23047 h 0.3789 l -1.26562,3.41015 -1.26172,1.70703 -0.75781,1.13672 -0.25391,0.45313 1.39063,-0.22656 1.76953,-1.02344 2.01953,-1.25 0.37891,-0.11328 -0.75782,1.58984 -0.5039,0.79688 -0.25391,0.45312 h 1.01172 l 1.64062,-0.56641 1.01172,-0.57031 -2.02343,2.61719 -2.39844,2.04687 -2.65235,2.83985 -0.3789,0.68359 v 0.33985 h 1.51562 l 0.88282,-0.45313 0.3789,-0.34375 -0.5039,1.59375 -3.28516,4.20313 -1.01172,1.70703 -0.37891,0.67968 -0.25,0.45704 1.26172,-0.33985 1.01172,-0.68359 0.88281,-0.45313 0.50782,0.11328 -1.01172,1.58985 -2.78125,3.29687 -1.26172,1.9336 -0.25391,0.45312 0.75782,0.22656 1.89453,-0.79296 0.75781,-0.45704 0.38281,-0.22656 0.125,0.33985 -0.125,0.68359 -0.1289,0.67969 h 0.3789 l 0.37891,0.11718 -0.37891,1.47657 -0.75781,0.67968 -0.63281,0.6836 -0.125,0.57031 -0.50391,1.13672 -0.37891,0.67969 0.37891,0.22656 1.00781,-0.33984 0.50782,-0.33985 -0.50782,0.79297 -0.125,0.34375"
       id="path186" />
    <path
       style="fill:none;stroke:#709ecf;stroke-width:4;stroke-linecap:round;stroke-linejoin:round;stroke-miterlimit:10;stroke-opacity:1"
       d="m 199.86328,47.734375 -0.37891,0.230469 -3.91796,3.179687 -6.44141,5.914063 -5.42969,7.613281 -1.13672,3.070313 1.89453,-0.113282"
       id="path188" />
    <path
       style="fill:none;stroke:#709ecf;stroke-width:4;stroke-linecap:round;stroke-linejoin:round;stroke-miterlimit:10;stroke-opacity:1"
       d="M 201.62891,55.464844 201,55.691406 l -5.55859,4.546875 -7.19922,6.820313 -6.31641,7.617187 -0.37891,2.386719 h 3.28516"
       id="path190" />
    <path
       style="fill:none;stroke:#709ecf;stroke-width:4;stroke-linecap:round;stroke-linejoin:round;stroke-miterlimit:10;stroke-opacity:1"
       d="m 207.1875,32.957031 -1.01172,0.796875 -7.19922,6.023438 -8.08203,6.9375 -2.77734,5 -0.12891,0.683594 v 0.453124"
       id="path192" />
    <path
       style="fill:none;stroke:#709ecf;stroke-width:4;stroke-linecap:round;stroke-linejoin:round;stroke-miterlimit:10;stroke-opacity:1"
       d="m 201,27.617188 h -0.37891 l -1.51562,1.136718 -7.32813,5.683594 -3.28125,3.183594 -3.79297,3.410156 -3.03125,3.066406 -1.64062,1.933594 -0.88281,1.933594 0.75781,0.679687 0.50391,-0.226562"
       id="path194" />
    <path
       style="fill:none;stroke:#709ecf;stroke-width:4;stroke-linecap:round;stroke-linejoin:round;stroke-miterlimit:10;stroke-opacity:1"
       d="m 188.36719,25.796875 -0.25,-0.339844 h 1.00781 l 3.28516,-0.570312 6.69531,-1.816407 2.65234,-0.570312 8.46094,-1.476562 4.29297,-0.683594 L 216.66016,20 h 0.3789 l -0.2539,0.339844 -2.14454,1.59375 -2.14843,1.589844 -2.27344,2.046874 -2.01953,2.046876 -1.89453,2.046874 -0.25391,0.453126 0.37891,0.226562 h 1.89453 l 1.76953,-0.566406 1.26172,-0.683594 0.63281,-0.226562 -0.37891,0.679687 -2.02343,1.59375 -3.28125,2.386719 -3.16016,2.386718 -2.14453,1.589844 -0.88672,1.253906 0.75781,0.339844 3.28516,-0.226562 2.27344,-0.570313 0.75781,-0.339843 0.63281,-0.226563 0.37891,-0.113281 -0.37891,1.019531 -1.64453,1.820313 -1.76562,1.933593 -1.39063,2.386719 -0.25391,0.679688 0.12891,1.023437 0.88281,0.113281 0.37891,-0.113281"
       id="path196" />
    <path
       style="fill:none;stroke:#ab7da6;stroke-width:4;stroke-linecap:round;stroke-linejoin:round;stroke-miterlimit:10;stroke-opacity:1"
       d="m 321.37109,78.425781 h -0.50781 l -7.44922,2.730469 -10.99219,4.886719 -4.54687,1.933593 0.75781,-0.113281"
       id="path198" />
    <path
       style="fill:none;stroke:#ab7da6;stroke-width:4;stroke-linecap:round;stroke-linejoin:round;stroke-miterlimit:10;stroke-opacity:1"
       d="m 314.67578,88.542969 -1.01172,0.113281 -9.59765,3.640625 -16.92579,6.933594 -5.42968,1.929691 0.6289,-0.22657"
       id="path200" />
    <path
       style="fill:none;stroke:#ab7da6;stroke-width:4;stroke-linecap:round;stroke-linejoin:round;stroke-miterlimit:10;stroke-opacity:1"
       d="m 313.28516,97.636719 h -0.62891 l -6.31641,2.503911 -16.04297,5.79687 -4.54687,1.36328 -3.66016,0.91016 -1.64453,0.45312"
       id="path202" />
    <path
       style="fill:none;stroke:#ab7da6;stroke-width:4;stroke-linecap:round;stroke-linejoin:round;stroke-miterlimit:10;stroke-opacity:1"
       d="m 297.625,110.02734 h -0.37891 l -7.57812,2.38672 -16.42188,5.34375 -9.09375,2.84375"
       id="path204" />
    <path
       style="fill:none;stroke:#ab7da6;stroke-width:4;stroke-linecap:round;stroke-linejoin:round;stroke-miterlimit:10;stroke-opacity:1"
       d="m 282.33984,111.27734 1.01172,-0.22656 3.15625,-1.25 5.4336,-2.27344 7.32421,-2.83984 10.60938,-3.75391 0.50781,-0.22656"
       id="path206" />
    <path
       style="fill:none;stroke:#ab7da6;stroke-width:4;stroke-linecap:round;stroke-linejoin:round;stroke-miterlimit:10;stroke-opacity:1"
       d="m 295.22266,120.94141 h -0.75782 l -1.89453,0.45312 -6.94531,2.16016 -9.47266,3.18359 -13.13672,4.32031 -10.48437,4.4336"
       id="path208" />
    <path
       style="fill:none;stroke:#ab7da6;stroke-width:4;stroke-linecap:round;stroke-linejoin:round;stroke-miterlimit:10;stroke-opacity:1"
       d="m 297.11719,115.25781 h -0.50391 l -10.23047,3.1836 -23.36719,7.38672 -15.28515,4.54687 -4.67188,1.02344 1.01172,-0.33985"
       id="path210" />
    <path
       style="fill:none;stroke:#709ecf;stroke-width:4;stroke-linecap:round;stroke-linejoin:round;stroke-miterlimit:10;stroke-opacity:1"
       d="m 197.33594,125.03125 -2.52735,2.95703 -5.17578,5.91016 -9.85547,10.46093 -8.20703,8.63672 -3.66406,4.32032 1.89453,0.22656 1.01172,-0.56641"
       id="path212" />
    <path
       style="fill:none;stroke:#ab7da6;stroke-width:4;stroke-linecap:round;stroke-linejoin:round;stroke-miterlimit:10;stroke-opacity:1"
       d="m 286.63672,134.92187 h -0.63281 l -9.47266,1.70704 -16.92578,5.45703 -16.67188,7.27343 -3.66406,2.16016 2.14844,-0.11328"
       id="path214" />
    <path
       style="fill:none;stroke:#ab7da6;stroke-width:4;stroke-linecap:round;stroke-linejoin:round;stroke-miterlimit:10;stroke-opacity:1"
       d="m 286.00391,129.92187 h -0.75782 l -7.70703,2.5 -17.67969,6.70704 -18.57031,7.73046 -6.3125,2.16016 0.75781,-0.34375"
       id="path216" />
    <path
       style="fill:none;stroke:#ab7da6;stroke-width:4;stroke-linecap:round;stroke-linejoin:round;stroke-miterlimit:10;stroke-opacity:1"
       d="m 232.44922,167.09375 -0.75781,0.33984 0.3789,-0.22656 1.89453,-0.79687 3.28516,-1.25 6.0625,-2.61329 4.92578,-2.5039 5.80859,-3.17969 6.94922,-3.64062 11.49219,-6.25 0.75781,-0.45704"
       id="path218" />
    <path
       style="fill:none;stroke:#ab7da6;stroke-width:4;stroke-linecap:round;stroke-linejoin:round;stroke-miterlimit:10;stroke-opacity:1"
       d="m 267.18359,152.31641 -1.64062,0.5664 -19.32813,6.9336 -17.80859,4.32031 -2.90234,0.45312 0.75781,-0.33984"
       id="path220" />
    <path
       style="fill:none;stroke:#709ecf;stroke-width:4;stroke-linecap:round;stroke-linejoin:round;stroke-miterlimit:10;stroke-opacity:1"
       d="m 200.49219,69.332031 -3.28125,2.273438 -6.0625,5.117187 -7.70703,9.320313 -4.92579,7.84375 -0.3789,2.613281"
       id="path222" />
    <path
       style="fill:none;stroke:#709ecf;stroke-width:4;stroke-linecap:round;stroke-linejoin:round;stroke-miterlimit:10;stroke-opacity:1"
       d="m 195.1875,89.566406 -0.62891,0.457032 -1.13672,1.023437 -4.04296,3.75 -4.29688,4.320313 -3.53516,4.433592 -3.15625,5.79688 -0.75781,2.16015 0.50391,1.01953 1.51562,-0.33984"
       id="path224" />
    <path
       style="fill:none;stroke:#709ecf;stroke-width:4;stroke-linecap:round;stroke-linejoin:round;stroke-miterlimit:10;stroke-opacity:1"
       d="m 204.28125,106.50391 -0.50391,0.22656 -6.94531,4.32031 -9.09766,8.29688 -7.95703,10.57421 -2.77734,5.22657 -0.88281,1.48047"
       id="path226" />
    <path
       style="fill:none;stroke:#709ecf;stroke-width:4;stroke-linecap:round;stroke-linejoin:round;stroke-miterlimit:10;stroke-opacity:1"
       d="m 192.15625,158.79297 -0.50391,0.34375 -4.80078,4.3164 -7.19922,6.48047 -7.70312,8.86719 -3.16016,5.57031 -0.88281,2.38672 0.25391,0.56641"
       id="path228" />
    <path
       style="fill:none;stroke:#709ecf;stroke-width:4;stroke-linecap:round;stroke-linejoin:round;stroke-miterlimit:10;stroke-opacity:1"
       d="m 180.78906,210.51562 -0.63281,0.33985 -4.41797,2.95703 -3.66406,4.66016 0.2539,1.92968 1.00782,-0.22656"
       id="path230" />
    <path
       style="fill:none;stroke:#709ecf;stroke-width:4;stroke-linecap:round;stroke-linejoin:round;stroke-miterlimit:10;stroke-opacity:1"
       d="m 185.33594,188.34766 h -0.37891 l -4.42187,4.54687 -4.79688,5.23047 -3.16016,4.77344 -0.75781,2.95703 1.64453,-0.79688"
       id="path232" />
    <path
       style="fill:none;stroke:#709ecf;stroke-width:4;stroke-linecap:round;stroke-linejoin:round;stroke-miterlimit:10;stroke-opacity:1"
       d="m 184.32422,177.20703 -3.03125,3.52734 -4.67188,5.33985 -6.5664,8.30078 -0.88672,2.95312 0.3789,-0.22656"
       id="path234" />
    <path
       style="fill:none;stroke:#709ecf;stroke-width:4;stroke-linecap:round;stroke-linejoin:round;stroke-miterlimit:10;stroke-opacity:1"
       d="m 179.90625,216.3125 -3.28516,2.95312 -5.9375,7.61719 -2.14453,4.20703 1.00781,2.61328 0.50782,-0.22656"
       id="path236" />
    <path
       style="fill:none;stroke:#709ecf;stroke-width:4;stroke-linecap:round;stroke-linejoin:round;stroke-miterlimit:10;stroke-opacity:1"
       d="m 179.77734,199.94141 -0.6289,1.13671 -4.92578,5.23047 -6.0625,7.27344 -1.26563,4.09375 1.26563,-0.22656"
       id="path238" />
    <path
       style="fill:none;stroke:#709ecf;stroke-width:4;stroke-linecap:round;stroke-linejoin:round;stroke-miterlimit:10;stroke-opacity:1"
       d="m 173.71484,235.06641 h -0.3789 l -2.14453,2.04687 -3.16016,5.23047 -2.27344,5.45703 -1.00781,2.72656"
       id="path240" />
    <path
       style="fill:none;stroke:#fae84c;stroke-width:4;stroke-linecap:round;stroke-linejoin:round;stroke-miterlimit:10;stroke-opacity:1"
       d="m 131.15234,250.86719 -0.2539,0.34375 -2.52735,2.61328 -0.3789,1.25"
       id="path242" />
    <path
       style="fill:none;stroke:#fae84c;stroke-width:4;stroke-linecap:round;stroke-linejoin:round;stroke-miterlimit:10;stroke-opacity:1"
       d="m 129.00391,232.11328 -2.27344,2.95313 -0.37891,1.82031 0.37891,0.22656"
       id="path244" />
    <path
       style="fill:none;stroke:#fae84c;stroke-width:4;stroke-linecap:round;stroke-linejoin:round;stroke-miterlimit:10;stroke-opacity:1"
       d="m 126.73047,243.36719 -1.26563,2.95312 1.13672,0.11328"
       id="path246" />
    <path
       style="fill:none;stroke:#fae84c;stroke-width:4;stroke-linecap:round;stroke-linejoin:round;stroke-miterlimit:10;stroke-opacity:1"
       d="m 124.45703,218.8125 -2.27344,3.86328 -1.89453,3.86719 -0.63281,2.38672"
       id="path248" />
    <path
       style="fill:none;stroke:#fae84c;stroke-width:4;stroke-linecap:round;stroke-linejoin:round;stroke-miterlimit:10;stroke-opacity:1"
       d="m 124.32813,228.92969 -0.50391,0.22656 -3.53516,3.98047 -0.88672,1.58984 1.64454,0.33985"
       id="path250" />
    <path
       style="fill:none;stroke:#fae84c;stroke-width:4;stroke-linecap:round;stroke-linejoin:round;stroke-miterlimit:10;stroke-opacity:1"
       d="m 122.18359,208.69531 -1.01171,2.61328 -2.27344,4.32032 -0.50391,2.27343 0.75781,0.34375"
       id="path252" />
    <path
       style="fill:none;stroke:#fae84c;stroke-width:4;stroke-linecap:round;stroke-linejoin:round;stroke-miterlimit:10;stroke-opacity:1"
       d="m 94.519531,144.8125 -0.25,1.13672 -2.273437,5.23047 -1.894532,5.5664 0.882813,0.11719"
       id="path254" />
    <path
       style="fill:none;stroke:#fae84c;stroke-width:4;stroke-linecap:round;stroke-linejoin:round;stroke-miterlimit:10;stroke-opacity:1"
       d="m 88.585938,139.35547 -2.023438,3.07031 -0.757812,4.08984 0.253906,2.04688 H 86.4375"
       id="path256" />
    <path
       style="fill:none;stroke:#fae84c;stroke-width:4;stroke-linecap:round;stroke-linejoin:round;stroke-miterlimit:10;stroke-opacity:1"
       d="m 85.425781,129.92187 -1.640625,1.58985 -1.390625,1.70703 -1.136719,2.83984 -0.378906,2.27344 v 0.91016 l 1.011719,1.25 0.378906,-0.11328"
       id="path258" />
    <path
       style="fill:none;stroke:#fae84c;stroke-width:4;stroke-linecap:round;stroke-linejoin:round;stroke-miterlimit:10;stroke-opacity:1"
       d="m 83.53125,121.16797 -1.136719,1.13672 -3.410156,5.57031 -3.03125,6.70703 1.894531,1.58984 2.90625,-2.04687"
       id="path260" />
    <path
       style="fill:none;stroke:#fae84c;stroke-width:4;stroke-linecap:round;stroke-linejoin:round;stroke-miterlimit:10;stroke-opacity:1"
       d="m 82.902344,112.07422 -3.410156,3.18359 -3.03125,5.91016 -1.136719,6.25391 1.261719,0.67968"
       id="path262" />
    <path
       style="fill:none;stroke:#fae84c;stroke-width:4;stroke-linecap:round;stroke-linejoin:round;stroke-miterlimit:10;stroke-opacity:1"
       d="m 78.984375,104.45703 -0.628906,0.34375 -4.042969,3.97656 -3.664062,6.48047 0.886718,4.77344 0.503906,-0.33984"
       id="path264" />
    <path
       style="fill:none;stroke:#fae84c;stroke-width:4;stroke-linecap:round;stroke-linejoin:round;stroke-miterlimit:10;stroke-opacity:1"
       d="m 77.976562,95.25 -0.378906,0.34375 -3.789062,5.11328 -3.917969,6.02344 -0.628906,3.75391 1.136719,-0.11329"
       id="path266" />
    <path
       style="fill:none;stroke:#fae84c;stroke-width:4;stroke-linecap:round;stroke-linejoin:round;stroke-miterlimit:10;stroke-opacity:1"
       d="M 72.039062,90.25 70.523438,93.203125 68.375,97.75 68.25,99.457031 v 1.023439 l 2.398438,-0.22656"
       id="path268" />
    <path
       style="fill:none;stroke:#fae84c;stroke-width:4;stroke-linecap:round;stroke-linejoin:round;stroke-miterlimit:10;stroke-opacity:1"
       d="m 67.617188,84.109375 -1.261719,1.707031 -1.644531,3.976563 -0.757813,2.160156 -0.503906,1.933594 v 0.453125 h 0.757812 l 0.886719,-0.226563"
       id="path270" />
    <path
       style="fill:none;stroke:#fae84c;stroke-width:4;stroke-linecap:round;stroke-linejoin:round;stroke-miterlimit:10;stroke-opacity:1"
       d="m 51.957031,138.67187 3.660157,1.9336 8.714843,3.41015 7.203125,3.07032 1.765625,1.13672 1.390625,0.68359 0.253906,-0.34375"
       id="path272" />
    <path
       style="fill:none;stroke:#fae84c;stroke-width:4;stroke-linecap:round;stroke-linejoin:round;stroke-miterlimit:10;stroke-opacity:1"
       d="m 52.207031,126.28516 0.507813,-0.11719 6.820312,3.07031 11.367188,5.79688 2.148437,2.61718 -1.265625,0.33985 H 71.15625"
       id="path274" />
    <path
       style="fill:none;stroke:#fae84c;stroke-width:4;stroke-linecap:round;stroke-linejoin:round;stroke-miterlimit:10;stroke-opacity:1"
       d="m 51.324219,125.94141 4.546875,4.54687 7.832031,6.36719 3.03125,2.61328 0.632813,2.16016"
       id="path276" />
    <path
       style="fill:none;stroke:#87e133;stroke-width:4;stroke-linecap:round;stroke-linejoin:round;stroke-miterlimit:10;stroke-opacity:1"
       d="m 43.242188,371.58984 h -0.378907 l -0.253906,-1.2539 0.253906,-0.45313 0.628907,-1.13672 L 44,367.83594 l 1.007812,-1.58985 0.757813,-1.02343 2.148437,-2.84375 1.136719,-1.58985 2.652344,-2.38672 2.273437,-1.47656 2.527344,-1.48047 2.523438,-1.58984 4.042968,-2.04688 3.160157,-1.47656 3.28125,-1.36328 3.539062,-1.13672 3.660157,-1.36719 4.800781,-1.92968 2.652343,-1.13672 2.652344,-1.36328 2.148438,-1.48047 3.789062,-1.92969 2.902344,-1.02344 3.414062,-1.25 3.281248,-1.02344 4.04297,-0.91015 2.39844,-0.45703 2.27344,-0.45313 3.03125,-0.22656 3.53906,-0.33984 6.0625,-0.6836 3.28516,-0.33984 1.64062,-0.34375 h 0.37891 l 0.3789,-0.11328"
       id="path278" />
    <path
       style="fill:none;stroke:#fae84c;stroke-width:4;stroke-linecap:round;stroke-linejoin:round;stroke-miterlimit:10;stroke-opacity:1"
       d="m 133.92969,315.66016 0.125,-0.33985 0.1289,1.25 v 2.04688 l 0.125,4.88672 0.63282,3.86718 0.6289,3.52344 0.63281,2.83984 0.50391,2.84375 0.25391,1.02344 0.2539,0.79297 0.25,0.68359 0.12891,-1.25"
       id="path280" />
    <path
       style="fill:none;stroke:#fae84c;stroke-width:4;stroke-linecap:round;stroke-linejoin:round;stroke-miterlimit:10;stroke-opacity:1"
       d="m 140.875,311.68359 -0.25,-1.02343 v -0.79688 0.57031 l -0.25391,1.81641 -0.3789,2.73047 -0.125,4.20312 0.6289,3.1836 0.88672,3.86718 1.38672,3.97657 1.89453,6.14062 0.63281,2.5 0.125,0.45313 0.25391,0.45703 -0.37891,-0.79688 -0.63281,-1.93359 -2.01953,-5 -1.26172,-3.98047 -0.75781,-3.52344 -0.63281,-2.72656 -1.26172,-3.07031 -0.63281,-1.36328 -0.25391,-1.25 -0.125,-1.02344 v -0.33984 7.83984"
       id="path282" />
    <path
       style="fill:none;stroke:#fae84c;stroke-width:4;stroke-linecap:round;stroke-linejoin:round;stroke-miterlimit:10;stroke-opacity:1"
       d="m 40.210938,95.25 0.378906,0.113281 4.925781,1.25 3.660156,1.253907 3.160157,1.25 1.894531,1.136722 0.882812,0.79297 0.503907,0.45703 -1.007813,0.11328"
       id="path284" />
    <path
       style="fill:none;stroke:#fae84c;stroke-width:4;stroke-linecap:round;stroke-linejoin:round;stroke-miterlimit:10;stroke-opacity:1"
       d="m 39.832031,90.476562 3.03125,-0.566406 4.167969,-0.457031 1.136719,-0.113281 h 2.398437 l 2.90625,0.796875 1.007813,0.679687 0.378906,0.457032 -0.378906,-0.113282"
       id="path286" />
    <path
       style="fill:none;stroke:#fae84c;stroke-width:4;stroke-linecap:round;stroke-linejoin:round;stroke-miterlimit:10;stroke-opacity:1"
       d="m 40.460938,85.703125 0.632812,1.589844 2.019531,3.183593 1.769531,2.160157 2.019532,2.5 2.148437,2.046875 2.148438,1.820312 0.503906,0.792969 -0.125,0.683595 -1.390625,0.56641 h -0.632812"
       id="path288" />
    <path
       style="fill:none;stroke:#fae84c;stroke-width:4;stroke-linecap:round;stroke-linejoin:round;stroke-miterlimit:10;stroke-opacity:1"
       d="m 42.863281,112.41406 1.386719,1.02344 8.085938,3.98047 6.441406,2.27344 2.019531,3.29687 -0.632813,2.83985 -0.378906,0.11328"
       id="path290" />
    <path
       style="fill:none;stroke:#fae84c;stroke-width:4;stroke-linecap:round;stroke-linejoin:round;stroke-miterlimit:10;stroke-opacity:1"
       d="m 42.863281,108.55078 0.757813,-0.11328 5.933594,2.61328 3.917968,2.84375 2.019532,1.92969 -0.378907,0.11328"
       id="path292" />
    <path
       style="fill:none;stroke:#fae84c;stroke-width:4;stroke-linecap:round;stroke-linejoin:round;stroke-miterlimit:10;stroke-opacity:1"
       d="m 39.453125,99.910156 3.914063,1.367184 6.945312,3.97657 5.683594,4.32031 0.632812,1.93359"
       id="path294" />
    <path
       style="fill:none;stroke:#fae84c;stroke-width:4;stroke-linecap:round;stroke-linejoin:round;stroke-miterlimit:10;stroke-opacity:1"
       d="m 42.355469,83.65625 h -0.882813 l -0.757812,0.453125 -1.894532,0.796875 -1.515624,0.683594 -1.894532,0.679687 -2.148437,0.910157 -3.03125,1.136718 -1.515625,0.570313 -1.261719,0.566406 -1.644531,0.457031 -2.652344,0.792969 -1.640625,0.570313 -1.136719,0.339843 H 20 l 1.011719,0.453125 1.894531,0.570313 2.777344,0.683593 2.90625,0.792969 2.777344,1.136719 3.410156,1.820312 1.136718,1.363282 0.507813,1.023437 0.125,0.453125 0.378906,0.230474 -1.136719,0.11328 -1.515624,0.11328 -1.644532,0.11328 -0.503906,0.22656 -0.378906,0.57031 -0.125,1.13672 1.765625,2.38672 1.136719,0.79297 3.664062,2.27344 1.894531,1.13672 1.011719,0.68359 0.378906,0.22656 -1.011718,-0.22656 -1.515626,-0.79687 -1.136718,-0.67969 -0.503906,-0.34375 v 0.34375 l 0.632812,1.13672 2.273438,2.38672 1.765624,1.36328 1.515626,1.02343 0.886718,0.91016 0.25,0.33984 0.128906,0.33985 0.125,0.34375 -0.632812,-0.11719 -1.386719,-0.67969 -2.527343,-1.13672 -0.757813,-0.33984 v 1.36328 l 1.261719,3.41016 3.539062,6.36328 2.398438,3.64062 1.640625,1.92969 0.378906,0.34375 -1.640625,-1.48047 -1.390625,-1.58984 -1.261719,-1.13672 -0.378906,-0.22656 -0.378906,-0.23047 -0.125,1.13672 -0.128906,0.79687 v 1.59375 l -0.378907,0.22656 -0.882812,0.11329 -1.640625,-0.22657 -1.894532,-1.02343 -2.402343,-1.70703 -3.03125,-1.92969 -2.777344,-1.36719 v 0.23047 l 1.640625,2.04297 4.042969,4.32031 2.398437,2.16016 1.515625,1.70703 1.011719,1.36328 0.253906,0.45312 0.125,0.33985 -1.136718,-0.90625 -2.777344,-1.48047 -1.265625,-0.56641 1.265625,1.82031 3.660156,3.63672 2.148438,1.81641 1.515624,1.48047 1.011719,1.8164 1.386719,2.27344 0.253906,0.57031 v 1.13672 l -0.757812,-0.57031 -1.136719,-0.91016 -0.503906,-0.22656 -0.507813,-0.45312 0.253906,2.72656 1.640626,4.77344 2.273437,5.11718 1.894531,4.54688 1.265625,2.61328 0.378907,0.68359 v 0.33985 l -1.390626,-1.47656 -2.652343,-2.73047 -1.136719,-1.01953 -0.378906,-0.23047 4.167968,6.82031 0.882813,1.13672 0.378906,0.34375 -1.386719,-1.13672 -4.296874,-3.64063 -0.503907,-0.11328 v 0.45703 l 0.632813,2.27344 3.03125,6.02344 2.273437,3.75 2.144531,2.84375 1.769532,2.5 1.261718,2.5 0.757813,1.48047 0.507813,0.45312 -0.886719,-0.79687 -0.882813,-0.56641 0.378906,0.45313 1.894532,2.61328 4.800781,5.91406 3.535156,3.29688 2.402344,2.15625 1.261719,0.79687 0.378906,0.22656 -0.503906,-0.79297 -0.632813,-0.79687 -0.378906,-0.11328 0.378906,0.91015 1.136719,2.83985 1.894531,4.20703 2.398438,5.34375 0.757812,1.70312 v 0.45313 l -0.378906,-0.11328 -2.273437,-1.70313 -1.515626,-1.25 -1.007812,-0.45703 -0.378906,-0.22656 v 0.57031 l 1.136718,3.86328 1.007813,3.29688 0.757813,2.16015 0.253906,0.67969 0.253906,0.34375 0.125,0.45313 -1.390625,-0.45313 -1.640625,-1.25 -1.011719,-1.02344 0.378907,0.91016 1.894531,2.61328 2.78125,4.88672 1.640625,2.95703 0.757812,1.47656 v 0.33985 l -0.882812,-0.33985 -1.769532,-1.02343 -1.515624,-1.13672 -0.378907,-0.22656 -0.125,0.33984 0.628907,2.84375 1.136718,4.20312 0.886719,3.75391 1.136719,3.06641 1.007812,1.82031 0.507813,0.45312 0.378906,0.23047 -0.378906,-1.13672 -0.632813,-1.25 1.136719,0.79297 3.285156,3.41016 4.546875,5.00391 4.167969,4.54687 2.652344,3.41016 1.136719,1.8164 v 0.34375 l -1.136719,-0.23047 -1.644531,-1.36328 -1.136719,-1.25 -0.503907,-0.33984 0.253907,0.56641 1.007812,2.16015 1.265625,2.61719 1.007813,2.61328 0.128906,0.56641 v 0.45703 l 1.136719,1.25 2.273437,2.27344 2.398438,2.5 1.644531,1.93359 0.62891,1.25 0.2539,0.45312 -0.2539,0.34375 0.3789,0.56641 1.26563,1.70703 3.41015,5.11328 2.52344,3.86328 2.14844,2.95704 1.13672,1.70703 0.2539,0.45312 0.37891,0.22656 -0.12891,-0.45312 -0.25,-0.91016 -0.63281,-1.25 -0.3789,-0.79687 0.3789,0.79687 1.64063,2.16016 2.02343,2.5 1.64063,2.04687 2.01953,1.25 0.50781,0.11329 1.26172,-0.6836 1.89453,-1.47656 2.14844,-1.58984 0.37891,-0.11329 0.75781,0.67969 1.26172,1.36328 1.26562,1.59375 1.76563,1.81641 0.88672,1.13672 0.3789,0.57031 0.75781,1.02344 0.37891,1.70312 1.00781,1.25 0.88672,1.13672 v 0.34375 l 0.37891,0.33985 0.3789,0.11328"
       id="path296" />
    <path
       style="fill:none;stroke:#fae84c;stroke-width:4;stroke-linecap:round;stroke-linejoin:round;stroke-miterlimit:10;stroke-opacity:1"
       d="m 56.628906,83.429688 -0.125,0.339843 -0.253906,0.796875 -1.011719,1.25 -1.386719,2.386719 -0.378906,2.046875 -0.128906,1.703125 0.378906,1.820313"
       id="path298" />
    <path
       style="fill:none;stroke:#fae84c;stroke-width:4;stroke-linecap:round;stroke-linejoin:round;stroke-miterlimit:10;stroke-opacity:1"
       d="m 42.230469,79.679688 0.503906,0.566406 1.136719,1.136718 1.644531,1.476563 1.515625,1.59375 3.03125,2.953125 1.894531,2.617188 1.894531,2.839843 1.765626,3.410157 2.78125,5.570312 2.273437,3.63672 2.398437,3.63672 2.527344,3.64062 2.527344,4.20313 3.660156,7.61719 2.273438,5.57031 2.273437,5 2.273438,5.0039 2.90625,7.5 1.769531,5.00391 1.765625,5.22656 2.148437,5.6836 2.148438,6.02734 3.660156,8.75 2.527344,5.23047 2.527344,4.88672 2.273436,4.66015 1.89453,4.4336 2.65235,7.27734 1.76953,5.57031 1.76562,5.33985 1.64453,4.54687 1.76563,5.79688 1.39062,3.7539 1.51563,4.4336 1.39062,4.88672 1.51563,5 2.90234,7.05078 2.14844,4.42968 2.01953,4.66407 1.76953,4.54687 2.27344,7.95703 1.64453,5.33985 1.26172,4.66015 1.26172,4.09375 1.76953,5.34375 1.01172,3.1836 1.00781,2.95312 0.88672,3.07031 1.00781,3.07032 0.88672,4.42968 0.25,2.61719 0.37891,2.95313 1.39062,3.86718 0.88281,1.81641 0.88672,1.70703 1.13672,1.9336 0.62891,1.58984 0.63281,1.93359 0.75781,3.41016 0.37891,1.81641 0.125,1.02343 v 0.79688 l 0.12891,0.79687 v 0.45313 l 0.125,0.33984 0.125,0.45703 v 0.79297 l 0.1289,-0.33984 0.37891,-0.79688 -0.25391,-0.90625 -1.01172,-1.82031"
       id="path300" />
    <path
       style="fill:none;stroke:#fae84c;stroke-width:4;stroke-linecap:round;stroke-linejoin:round;stroke-miterlimit:10;stroke-opacity:1"
       d="m 45.640625,84.226562 0.503906,-0.683593 1.390625,-1.25 3.03125,-2.386719 2.398438,-1.480469 2.148437,-1.25 1.640625,-1.023437 1.011719,-0.453125 0.757813,-0.453125 0.503906,-0.113282 h 0.378906 l -0.125,1.25 -0.503906,2.613282 -0.253906,1.476562 -0.125,0.796875 0.378906,0.339844 1.765625,-0.566406 1.769531,-1.136719 1.515625,-1.023438 0.632813,-0.339843 0.25,-0.34375 -0.125,1.136719 -0.632813,2.273437 -1.136719,2.386719 -0.757812,1.820312 -0.125,1.476563 0.378906,0.226562 1.011719,-0.113281 1.261719,-0.679688 1.265624,-1.023437 1.640626,-1.136719 0.378906,0.453125 0.253906,1.59375 0.378906,2.839844 0.378906,1.476563 1.136719,1.367187 h 1.136719 l 1.386719,-0.230469 2.273437,-1.589844 0.253906,-0.339843 0.378907,0.566406 v 1.480469 l 0.125,2.726562 0.253906,1.703125 0.378906,1.253907 0.125,0.453124 0.378907,0.453126 1.011718,0.113281 1.136719,-0.679688 1.640625,-1.476562 0.507812,-0.683594 0.25,0.453125 -0.125,2.386719 -0.125,3.867191 v 4.43359 l 0.125,4.32031 0.125,4.88672 0.378907,0.33985 1.265625,-0.33985 1.261718,-1.13672 1.136719,-3.07031 0.503907,-1.47656 0.253906,-0.45703 0.125,-0.45313 0.253906,0.33985 0.882812,3.29687 0.253907,2.95703 0.378906,2.5 0.632813,1.36328 0.125,0.34375 0.632812,-1.2539 1.386719,-2.95313 0.507812,-1.13672 0.378907,-0.33984 0.378906,0.79297 0.25,2.16015 v 2.73047 l -0.125,2.72657 -0.632813,2.16015 -0.125,0.45313 v -0.45313 l 1.894531,-2.5 1.261719,-1.25 0.507813,-0.34375 0.378906,-0.45312 v 1.36328 l -0.378906,2.84375 -1.390625,5.33984 -0.757813,3.63672 -0.253906,1.36719 v 1.02343 h 0.378906 l 1.136719,-0.79687 1.390625,-1.25 1.136719,-1.02344 0.507812,-0.33984 0.628907,-0.34375 0.886718,0.34375 0.25,2.04297 -0.125,5.57031 -0.503906,4.32031 -0.632812,3.52344 -0.503907,1.70703 0.25,-0.79687 0.632813,-1.47657 0.882812,-1.59375 0.757813,-1.02343 0.128906,1.13671 -0.128906,2.73047 -0.378907,3.52344 -0.757812,4.66016 -0.25,1.70703 1.261719,-2.16016 0.757811,-1.02344 0.25391,0.33985 0.3789,1.70703 0.37891,5.11328 0.125,3.98047 0.25391,3.52344 0.3789,1.8164 0.25,0.34375 1.01172,-0.23047 1.13672,-0.90625 0.75781,-0.91015 0.37891,-0.34375 0.125,1.2539 0.12891,3.06641 -0.12891,3.75391 -0.37891,4.20312 -0.125,1.13672 1.76953,-2.72656 0.62891,-0.6836 0.50781,-0.79296 v 1.70312 l -0.1289,3.41016 -0.25,1.93359 -0.12891,1.02344 0.50781,-0.79688 0.62891,-1.13672 0.25391,-0.79687 0.3789,-0.45313 0.25391,-0.33984 0.3789,1.25 0.125,2.38672 v 6.59375 l 0.125,0.90625 h 0.75782 l 1.01172,-1.02344 1.76953,-2.04297 0.3789,-0.45703 0.37891,-0.11328 0.37891,0.45703 v 1.81641 l -0.12891,4.09375 v 3.52344 l 0.12891,1.13671 1.00781,-0.22656 1.64453,-1.36719 0.88281,-1.01953 2.01953,-1.70703 0.12891,1.70703 -0.88672,4.66016 -0.50391,2.95312 -0.2539,2.27344 -0.125,1.02344 0.75781,-0.33984 1.26172,-1.25 2.02344,-1.82032 0.125,1.70703 0.125,4.08985 -0.125,2.95703 v 3.52344 l 1.26172,-0.33985 1.51562,-1.25 1.01172,-1.02343 0.37891,-0.34375 0.50781,0.11328 0.6289,2.39062 0.50782,2.61328 0.25,3.07032 0.2539,2.95312 -0.3789,3.41016 L 128.75,232 l -0.125,0.33984 1.01172,-0.91015 2.14453,-1.9336 1.89453,-1.47656 0.37891,-0.22656 v 0.68359 l -1.00782,2.61328 -2.65234,6.25 -0.88672,3.52344 -0.6289,2.50391 -0.12891,0.90625 -0.125,0.34375 1.13672,-0.6836 1.26172,-1.36328 0.88672,-1.13672 1.00781,-0.45312 0.88672,1.36328 1.26172,2.95312 0.125,2.38672 -0.125,2.95703 -0.88282,3.98047 -0.63281,1.70313 -0.125,0.33984 2.52344,-2.15625 1.51562,-1.02344 0.37891,-0.23046 0.12891,1.70703 -0.63282,3.52343 -0.88281,3.86329 -0.50781,3.41015 -0.37891,2.73047 -0.125,1.47656 v 0.45703 l 0.125,0.33985 0.12891,1.02344 -0.12891,2.04687 -0.6289,5.33984 -1.13672,4.89063 -0.37891,2.04297 -0.37891,1.02344 -0.1289,0.68359 v 2.27344 l -0.125,2.04687 -0.125,1.92969 -0.25391,2.16016 v 0.79687 l 0.37891,0.22656 0.125,1.9336 v 4.08984 l 0.75781,1.82031 0.63281,0.33985 0.75782,0.57031 0.3789,0.67969 0.125,1.82031"
       id="path302" />
    <path
       style="fill:none;stroke:#709ecf;stroke-width:4;stroke-linecap:round;stroke-linejoin:round;stroke-miterlimit:10;stroke-opacity:1"
       d="m 174.22266,40.121094 0.3789,3.183594 0.75781,6.589843 0.125,1.367188"
       id="path304" />
    <path
       style="fill:none;stroke:#709ecf;stroke-width:4;stroke-linecap:round;stroke-linejoin:round;stroke-miterlimit:10;stroke-opacity:1"
       d="m 169.67578,32.617188 v 4.09375 l 1.76563,10.570312 3.03125,6.820312 1.26562,-1.820312"
       id="path306" />
    <path
       style="fill:none;stroke:#709ecf;stroke-width:4;stroke-linecap:round;stroke-linejoin:round;stroke-miterlimit:10;stroke-opacity:1"
       d="m 162.09766,36.597656 0.6289,4.773438 5.5586,16.59375 3.03125,7.730468 0.5039,-2.160156"
       id="path308" />
    <path
       style="fill:none;stroke:#709ecf;stroke-width:4;stroke-linecap:round;stroke-linejoin:round;stroke-miterlimit:10;stroke-opacity:1"
       d="m 157.67578,32.84375 -0.125,0.34375 0.37891,6.363281 4.67187,16.710938 4.80078,11.480469 1.00782,1.707031 0.1289,-1.820313"
       id="path310" />
    <path
       style="fill:none;stroke:#ab7da6;stroke-width:4;stroke-linecap:round;stroke-linejoin:round;stroke-miterlimit:10;stroke-opacity:1"
       d="m 200.24219,222.33594 5.05078,-2.38672 15.66406,-5.6836 10.98828,-2.83984 6.0625,-1.82031 0.37891,-0.79688"
       id="path312" />
    <path
       style="fill:none;stroke:#ab7da6;stroke-width:4;stroke-linecap:round;stroke-linejoin:round;stroke-miterlimit:10;stroke-opacity:1"
       d="m 165.25391,323.84766 1.39062,-0.57032 1.26172,-1.02343 2.14844,-1.47657 4.92578,-3.41015 4.67187,-3.1836 6.1875,-4.09375 7.20313,-4.54687 7.19922,-4.42969 6.1875,-3.75391 6.1875,-4.20312 2.40234,-1.93359 2.14453,-1.70704 3.41406,-2.61328 2.27344,-1.36328 1.00781,-0.57031 -0.3789,-0.22656 h -3.53516 l -3.66406,0.79687 -2.27344,1.02344 -2.27344,0.91016 -2.52734,0.90625 -2.39844,0.91015 -1.89453,0.6836 -2.65234,0.45312 -1.26172,0.11328 -0.37891,0.11328 0.62891,-1.02343 1.26562,-1.58985 1.76563,-1.70312 1.64453,-2.27344 1.76563,-2.50391 1.89453,-3.75 0.50781,-2.04687 v -1.02344 l -1.39063,-0.33984 h -1.26171 l -1.51563,0.45312 -1.39062,0.6836 -0.75782,0.33984 1.01172,-1.02344 1.38672,-2.04297 2.40234,-3.98047 1.51563,-2.72656 1.26172,-2.27344 0.75781,-1.48046 0.125,-0.33985 -0.62891,-0.22656 -3.16015,1.82031 -2.52344,1.81641 -2.52734,1.47656 -1.39063,0.79688 1.26563,-0.91016 1.76562,-1.70313 2.02344,-2.16015 1.89453,-2.38672 2.39844,-3.52344 1.89453,-2.61719 1.76953,-2.38671 0.88281,-1.36329 -1.39062,-0.22656 -1.64063,0.79688 -1.26172,0.90625 -0.3789,0.11328 0.5039,-0.33985 2.27344,-1.8164 3.41016,-3.41016 5.43359,-6.02734 3.03125,-3.52344 2.77735,-2.83984 1.89453,-1.48047 0.75781,-0.45313 -2.65234,0.56641 -2.14844,1.02344 -1.64063,0.68359 -0.3789,0.33984 0.5039,-0.33984 2.52735,-1.82031 4.29297,-3.06641 4.16796,-3.41015 3.16016,-3.07032 3.78906,-4.54687 1.64063,-2.38672 0.5039,-1.25 -0.88281,-0.22656 -4.67187,1.13672 -4.54688,2.27343 -4.29687,1.92969 -2.52344,1.02344 -0.50781,0.33984 1.01172,-0.79297 2.14843,-1.93359 2.77735,-2.72656 3.15625,-2.84375 4.80078,-4.32032 3.15625,-2.61328 2.02344,-1.82031 0.3789,-0.45312 -1.51562,-0.22657 -5.05469,1.25 -3.91406,1.36328 -2.90625,0.79688 -1.13672,0.33984 1.39062,-0.79687 3.41016,-2.15625 4.54687,-3.29688 4.16797,-3.41015 3.41016,-3.07032 4.29687,-3.86328 2.01954,-1.82031 0.88281,-0.79687 -0.88281,-0.45313 -2.01954,0.11328 -2.90625,0.56641 -2.27343,0.45703 -0.50782,0.11328 4.80079,-3.29687 5.17968,-3.63672 5.42969,-4.09375 4.54688,-3.63672 3.66406,-3.07031 0.2539,-0.45313 -1.64453,-0.22656 -3.41015,0.45312 -4.16797,1.36328 -4.16797,1.36719 -0.50391,0.22656 0.37891,-0.57031 2.52734,-1.92969 6.56641,-4.54687 3.91406,-2.95703 2.78125,-2.27344 1.76563,-1.82031 0.75781,-1.25 0.12891,-1.13672 -0.50782,-0.33984 -1.13672,-0.11329 -1.51562,-0.33984 -1.13672,-0.11719 -0.37891,-0.11328 1.39063,-1.70312 3.78906,-3.1836 4.92578,-3.97656 6.31641,-5.23047 2.27344,-2.16015 0.88281,-1.02344 -0.25,-0.45313 -2.90625,-0.11328 -2.77734,0.79297 -2.40235,0.79688 h -0.6289 l 3.28125,-2.04688 4.16796,-2.61328 4.29688,-2.84375 3.15625,-2.5 2.39844,-2.27344 0.3789,-0.33984 -0.5039,-0.11328 -2.27344,0.22656 -3.66406,1.13672 -5.05078,1.36328 -0.75782,0.22656 2.01953,-1.13672 5.8125,-4.43359 2.90235,-2.61328 1.89453,-1.70313 1.13672,-1.02343 0.1289,-0.45703 0.25,-0.45313 v -0.33984 l 0.12891,-0.34375 0.50391,-0.90625 2.14843,-2.04688 4.04297,-2.61719 4.54688,-2.83984 5.55469,-3.75 2.52734,-1.82031 1.01172,-1.02344 -0.25391,-0.33984 -3.28515,0.22656 -3.66016,1.02344 -3.53906,1.25 -2.14453,0.45312 -0.37891,0.11719 1.76562,-2.16016 3.28516,-2.95703 2.90625,-2.839842 1.64063,-2.160157 2.01953,-2.617187 0.75781,-1.25 0.25391,-0.453125 -0.125,-0.339844 0.3789,-0.34375 1.64063,-1.363281 4.42187,-3.183594 2.77735,-1.703125 2.65234,-1.59375 2.27344,-1.363281 0.5039,-0.453125 -0.125,-0.34375 -2.39843,1.023437 -3.78907,1.707032 -3.16015,1.476562 -1.38672,0.796875 -0.37891,0.113281 1.13672,-0.796875 3.03125,-1.929687 4.03906,-2.84375 4.80078,-3.976563 1.89454,-1.933593 1.26562,-1.707032 0.37891,-1.363281 0.125,-0.910156 0.2539,-0.90625 v -0.796875 l 0.25,-0.339844 v -0.34375 l -0.3789,-0.226562 h -1.00782 l -1.76953,0.226562 -2.14843,0.457031 -2.90625,1.25 -0.88282,0.339844 -1.01172,0.339844 h -0.88281 l -0.3789,-0.113281 -0.125,-1.363282 0.88281,-1.363281 0.75781,-1.023437 0.125,-0.339844 0.12891,-0.34375 -1.39063,0.113281 -2.52734,1.023437 -3.91406,1.820313 -5.8086,2.957031 -3.03125,1.703125 -2.90625,1.476563 -2.90625,1.367187 -2.14844,1.136719 -2.52343,1.476562"
       id="path314" />
    <path
       style="fill:none;stroke:#87e133;stroke-width:4;stroke-linecap:round;stroke-linejoin:round;stroke-miterlimit:10;stroke-opacity:1"
       d="m 162.47656,330.32422 0.25,-0.33985 v -1.02343 l 0.63281,-0.11328 1.01172,-0.33985 1.13672,-0.45703 1.13672,-0.11328 h 4.54688 l 1.64062,0.33984 2.77734,0.57032 1.76954,0.5664 1.89453,0.6836 1.89453,0.45312 2.01953,0.57031 3.66406,0.91016 2.65235,0.45312 2.65234,0.45704 3.03125,0.5664 1.76953,0.33985 1.64063,0.57031 1.89453,0.5664 2.14843,0.45704 2.39844,0.45312 3.28516,0.68359 2.01953,0.45313 1.76953,0.33984 2.27344,1.02344 1.51562,0.34375 1.76953,0.79297 1.76954,0.57031 2.01953,0.45313 1.76953,0.57031 2.01953,0.56641 1.51562,0.68359 1.64063,0.67969 2.65234,0.57031 1.64453,0.56641 1.26172,0.57031 1.64063,0.45312 1.13672,0.6836 1.13672,0.45312 1.64453,0.11328 1.51562,0.57032 1.26172,0.5664 1.64063,0.79688 0.75781,0.57031 0.88672,0.45312 1.13672,0.57032 0.88281,0.79297 0.2539,0.34375 1.13672,1.25 0.88282,0.67968 0.75781,0.79688 1.26562,1.36328 1.13672,0.79687 0.88281,0.56641 0.63282,0.57031 0.5039,0.91016 0.88282,0.79297 1.13671,1.02344 0.88672,0.68359 0.62891,0.79687 0.63281,0.67969 0.75781,0.45703 1.01172,0.79297 0.62891,0.91016 0.88672,0.79687 1.26172,0.67969 0.88281,0.57031 0.50781,0.45313 0.37891,0.45703 0.5039,0.45312 0.75782,0.6836 0.3789,0.33984 0.37891,0.11328 0.75781,0.45313 0.37891,0.11719 h 0.63281"
       id="path316" />
    <path
       style="fill:none;stroke:#ab7da6;stroke-width:4;stroke-linecap:round;stroke-linejoin:round;stroke-miterlimit:10;stroke-opacity:1"
       d="m 157.55078,334.87109 v -0.91015 l -0.12891,-0.79297 v -1.13672 l -0.125,-1.48047 v -2.83984 l 0.125,-1.58985 0.12891,-1.70703 v -2.83984 l 0.125,-1.70703 0.125,-1.70313 v -6.70703 l 0.25391,-5.91406 1.13672,-4.20313 1.64062,-4.20703 1.13672,-3.63672 0.88672,-3.29687 1.38672,-5.91016 1.01172,-4.77344 1.76953,-5.68359 2.14453,-6.48047 3.03125,-9.77734 1.39062,-5.57031 0.88282,-5.11329 1.26562,-5.34375 2.27344,-6.13671 5.30469,-10.91407 3.78906,-7.73047 4.16797,-7.73046 4.29297,-7.38672 5.43359,-10.45703 3.15625,-7.04688 3.91406,-7.84375 5.05469,-8.41406 6.1875,-8.75 9.85156,-12.16406 5.4336,-6.14063 4.67187,-5.33984 4.80078,-5.11719 7.95703,-7.95703 4.54688,-3.97656 3.15625,-2.95703 2.27344,-2.16016 1.76953,-2.04688 2.14843,-2.16015 1.13672,-0.90625 1.26172,-1.13672 1.51563,-1.25 1.51562,-1.36719 0.50391,-0.67969 0.1289,-0.68359 0.75782,-0.91016 3.91406,-3.179684 3.66406,-2.957031 2.77735,-2.386719 1.89453,-1.707031 0.88672,-1.363281 0.3789,-1.023438 0.50391,-1.25 1.26172,-1.136718 1.89453,-1.933594 3.03125,-3.066406 1.39062,-1.136719 0.63282,-0.570313 0.25,-0.339844 0.3789,-0.339843 1.13672,-0.796875 1.51563,-1.023438 1.01171,-0.796875 0.37891,-0.226562"
       id="path318" />
    <path
       style="fill:none;stroke:#709ecf;stroke-width:4;stroke-linecap:round;stroke-linejoin:round;stroke-miterlimit:10;stroke-opacity:1"
       d="m 148.96094,111.39063 3.15625,8.41406 6.0625,13.86718 4.29687,7.39063 v -1.48047"
       id="path320" />
    <path
       style="fill:none;stroke:#709ecf;stroke-width:4;stroke-linecap:round;stroke-linejoin:round;stroke-miterlimit:10;stroke-opacity:1"
       d="m 144.79297,85.816406 0.6289,5.570313 5.5586,13.980471 6.0625,12.05078 2.65234,2.95312 v -2.72656"
       id="path322" />
    <path
       style="fill:none;stroke:#709ecf;stroke-width:4;stroke-linecap:round;stroke-linejoin:round;stroke-miterlimit:10;stroke-opacity:1"
       d="m 148.70703,72.628906 v 0.34375 l 1.64063,5.226563 4.42187,14.550781 2.65234,8.75391 0.63282,-0.34375 -0.125,-2.386722"
       id="path324" />
    <path
       style="fill:none;stroke:#709ecf;stroke-width:4;stroke-linecap:round;stroke-linejoin:round;stroke-miterlimit:10;stroke-opacity:1"
       d="m 155.78125,50.007812 0.37891,6.253907 5.80859,14.550781 1.76953,3.296875 0.37891,-1.480469 -0.125,-0.90625"
       id="path326" />
    <path
       style="fill:none;stroke:#709ecf;stroke-width:4;stroke-linecap:round;stroke-linejoin:round;stroke-miterlimit:10;stroke-opacity:1"
       d="m 185.71484,25.457031 h -0.3789 l -0.88282,0.679688 -0.50781,0.910156 -0.75781,1.363281 -0.62891,1.480469 -0.63281,1.476563 -0.63281,2.5 -0.37891,1.933593 -0.25,2.273438 -0.2539,2.613281 -0.63282,4.890625 -0.3789,3.636719 -0.125,3.523437 -0.125,3.863281 -0.50782,4.207032 -1.00781,5.570312 -1.13672,4.089844 -1.39062,4.207031 -1.26172,4.886719 -1.39063,7.277344 -0.2539,4.207031 -0.37891,4.089844 -0.125,3.75 -0.125,4.433591 -0.3789,6.36719 -0.50782,3.86328 -0.6289,3.98047 -0.37891,4.08984 -0.25391,6.9375 -0.2539,4.54688 -0.37891,4.77344 -0.75781,4.66015 -1.00781,5.45703 -1.51563,6.82032 -1.01172,4.77343 -0.5039,4.32032 -0.25391,4.77343 -0.25391,7.50391 -0.125,5 -0.125,4.88672 -0.63281,4.32031 -1.26172,5.23047 -1.01172,6.82031 -0.2539,5.11328 -0.125,4.32032 -0.125,4.88671 -0.12891,6.36719 0.12891,3.63672 0.125,3.86328 -0.25391,3.41016 -0.6289,5.68359 -0.88672,4.09375 -0.50391,3.29688 -0.125,3.18359 -0.25391,3.29688 -0.125,3.86328 v 5.79687 l -0.38281,3.63672 -0.375,2.84375 -0.63281,3.52344 -0.50781,2.04687 -0.88282,2.72657 -0.75781,2.04687 -0.125,2.38672 -0.1289,1.70703 v 9.66016 l 0.1289,1.93359 0.125,1.70313 0.25391,1.48046 0.6289,2.5 0.37891,2.95313 0.37891,3.29687 0.50781,2.61719 0.50391,2.38672 0.5039,3.52344 0.25391,2.04687 0.3789,1.36328 0.50782,1.47657 0.6289,1.93359 0.25391,0.79688 v 5.22656 l 0.37891,1.13672 0.125,0.79687 v 0.33985 l 0.1289,-0.33985 0.88281,-2.38672 0.25391,-0.79687"
       id="path328" />
    <path
       style="fill:none;stroke:#709ecf;stroke-width:4;stroke-linecap:round;stroke-linejoin:round;stroke-miterlimit:10;stroke-opacity:1"
       d="m 150.60156,60.125 0.125,1.707031 3.66406,14.777344 6.31641,18.640625 2.77734,4.433594"
       id="path330" />
    <path
       style="fill:none;stroke:#709ecf;stroke-width:4;stroke-linecap:round;stroke-linejoin:round;stroke-miterlimit:10;stroke-opacity:1"
       d="m 185.08203,27.957031 h -2.27344 l -0.3789,-0.113281 -0.125,-0.453125 -0.25391,-0.34375 -0.25,-0.453125 -0.88672,-0.457031 -1.00781,-0.566407 -0.37891,-0.339843 -0.63281,-0.683594 -1.01172,-1.023437 -1.00781,-0.566407 -0.88672,-0.570312 -1.00781,-0.453125 -1.39063,-0.910156 -1.13672,-0.339844 -0.3789,0.566406 v 3.636719 l 0.2539,1.367187 0.37891,0.792969 -1.39062,-0.566406 -2.27344,-1.25 -6.82031,-3.640625 -2.77735,-1.019532 -0.3789,-0.34375 L 158.6875,20 l -0.25391,1.363281 -0.2539,3.070313 v 2.386718 l -0.75782,-0.113281 -2.27343,-0.796875 -2.52735,-1.023437 -1.76562,-0.226563 -0.37891,-0.226562 -0.2539,1.023437 -0.25391,2.5 v 2.5 l -0.125,1.023438 v 0.339843 h -1.01172 l -1.26172,-0.339843 -2.65234,-1.023438 -0.50391,-0.226562 -0.88672,4.09375 -0.125,2.042969 -0.125,2.503906 -0.3789,1.476562 V 40.6875 h -0.50782 l -0.75781,-0.113281 -0.3789,-0.113281 -0.50391,0.226562 0.125,3.296875 1.01172,3.183594 1.89453,5.113281 0.25391,1.136719 0.125,0.457031 -0.63282,-1.59375 -1.26172,-1.363281 -0.5039,-0.339844 -0.25391,0.453125 v 4.207031 l 0.25391,4.320313 0.3789,2.953125 0.125,1.136719 v 0.457031 l -0.63281,0.453125 -0.75781,-0.226563 -1.38672,-1.25 -0.37891,-0.339843 -0.2539,0.90625 -0.25391,4.890624 0.63281,3.183594 0.125,2.613282 v 2.273437 l -0.25,5.457031 1.38672,7.613282 0.25391,2.046874 0.125,0.339844 0.25391,0.34375 0.125,-0.570312 -1.13672,-2.386719 -1.26172,-2.273437 -0.63281,-0.796876 -0.37891,0.230469 0.25391,2.613281 0.75781,3.070313 0.3789,1.023437 0.37891,1.136719 v 0.453125 l 0.125,0.339844 -0.25,-0.339844 -0.25391,-0.339844 -0.3789,-0.457031 -0.125,3.070313 v 3.183596 l 0.3789,5.57031 0.62891,1.02344 0.37891,0.22656 v 0.33984 l -0.37891,-0.45312 1.51563,4.88672 0.88671,5.45703 0.25,2.5 0.12891,1.13672 -0.75781,-0.11328 -2.52735,-2.04688 -1.89453,-1.70312 -1.64062,-1.36719 0.125,1.02344 0.75781,2.38672 0.88281,5.91406 v 2.5 l -0.6289,-0.34375 -1.13672,-0.90625 -0.37891,0.11328 0.125,3.75 0.75781,5.11719 0.75782,4.77343 0.125,0.56641 v -0.22656 l -0.125,-0.67969 1.64062,7.27344 0.37891,3.41015 0.3789,2.72657 v 0.45703 l -0.6289,0.22656 v 3.52344 l 1.00781,6.36718 0.25391,2.61329 -0.125,0.68359 h -0.37891 l -1.89453,-0.79688 -2.02344,-1.59375 -1.13672,-0.79296 -0.125,2.72656 -0.3789,5.0039 0.125,2.5 0.1289,1.02344 0.125,1.02344 -0.2539,-0.68359 -0.37891,-0.6836 v 0.6836 l 1.01172,2.83984 0.125,2.95703 0.12891,1.70703 -0.12891,0.33985 -1.89453,-1.70704 -1.00781,-1.36328 0.3789,0.79688 1.38672,1.93359 2.14844,5.22656 0.63281,1.9336 0.62891,0.91015 0.2539,0.33985 v 0.33984 l -0.3789,3.75391 -0.125,4.20312 0.5039,3.52344 0.25391,0.34375 -0.37891,-0.79687 -1.01172,-1.36329 0.125,1.92969 0.75782,2.84375 0.63281,1.02344 0.25391,0.33984 -0.12891,-0.5664 -0.88281,-1.9336 -1.01172,-1.93359 -0.50391,-0.22656 0.75781,3.07031 0.88282,1.81641 1.39062,2.61718 0.50391,1.02344 0.63281,2.27344 0.37891,2.15625 0.2539,0.79687 0.125,1.02344 -0.5039,2.95703 -0.37891,4.88672 v 2.04688 l -0.12891,-0.34375 -1.13671,-1.25 -1.51563,-1.58985 -0.50391,-0.22656 0.37891,3.63672 0.63281,2.61328 0.50391,2.16016 0.125,1.25 0.12891,0.34375 0.125,0.45312 v 1.36328 l -0.125,2.16016 v 1.02344 l 0.125,1.82031 -0.50391,-1.02344 -0.50781,-1.13672 -0.125,-0.34375 -0.37891,-0.33984 -0.25391,1.36328 0.25391,1.70703 0.125,0.33984 0.12891,0.33985 0.88281,1.25 0.25391,0.45703"
       id="path332" />
  </g>
</svg>
